<svg width="393" height="852" viewBox="0 0 393 852" fill="none" xmlns="http://www.w3.org/2000/svg">
<g clip-path="url(#clip0_380_2802)">
<rect width="393" height="852" fill="white"/>
<rect width="393" height="852" fill="url(#paint0_linear_380_2802)"/>
<g filter="url(#filter0_d_380_2802)">
<path d="M393 145C324.574 145 258.951 172.972 210.566 222.763C162.182 272.554 135 340.085 135 410.5C135 480.915 162.182 548.446 210.566 598.237C258.951 648.028 324.574 676 393 676L393 410.5L393 145Z" fill="white"/>
</g>
<circle cx="237" cy="739" r="12" fill="black"/>
<path d="M106.466 608.054L99.3186 599.337L101.107 597.87L109.232 602.433L109.335 602.349L106.448 593.492L108.236 592.025L115.383 600.743L113.982 601.893L108.9 595.694L108.139 596.318L107.818 592.772L111.456 603.963L110.393 604.835L100.139 599.068L103.553 600.078L102.786 600.707L107.868 606.905L106.466 608.054ZM119.986 600.849C119.893 600.925 119.795 601.002 119.691 601.081C119.591 601.156 119.492 601.228 119.392 601.296L118.446 600.142C118.513 600.1 118.587 600.046 118.668 599.98C118.751 599.918 118.832 599.856 118.908 599.793C119.218 599.539 119.41 599.267 119.483 598.979C119.563 598.69 119.521 598.364 119.358 598L119.189 597.634L111.407 592.961L113.051 591.614L119.585 596.035L118.61 595.684L119.13 595.258L119.295 596.273L116.241 588.998L117.823 587.701L120.988 596.391C121.248 597.094 121.385 597.705 121.401 598.225C121.416 598.744 121.305 599.213 121.067 599.629C120.834 600.043 120.473 600.45 119.986 600.849ZM127.974 590.421L120.826 581.703L124.349 578.815C124.973 578.303 125.599 577.975 126.228 577.83C126.857 577.685 127.455 577.716 128.023 577.924C128.591 578.132 129.102 578.514 129.558 579.07L129.568 579.082C130.04 579.658 130.315 580.288 130.391 580.973C130.469 581.65 130.325 582.293 129.962 582.901L134.753 584.863L132.976 586.319L128.571 584.446C128.563 584.452 128.551 584.462 128.535 584.475C128.519 584.488 128.504 584.5 128.492 584.51L126.843 585.862L129.533 589.143L127.974 590.421ZM125.862 584.666L127.663 583.19C128.158 582.784 128.435 582.337 128.495 581.851C128.554 581.365 128.392 580.888 128.009 580.421L127.999 580.409C127.626 579.954 127.187 579.71 126.683 579.679C126.18 579.64 125.681 579.824 125.185 580.23L123.415 581.681L125.862 584.666ZM140.32 580.662C139.466 581.362 138.579 581.78 137.659 581.914C136.74 582.042 135.832 581.9 134.937 581.489C134.041 581.079 133.21 580.406 132.444 579.472L132.434 579.46C131.665 578.521 131.168 577.575 130.944 576.62C130.721 575.658 130.766 574.739 131.078 573.863C131.395 572.984 131.974 572.199 132.816 571.509C133.661 570.816 134.544 570.402 135.464 570.267C136.384 570.132 137.292 570.27 138.188 570.681C139.084 571.092 139.915 571.764 140.681 572.699L140.691 572.711C141.457 573.645 141.953 574.592 142.18 575.55C142.411 576.506 142.372 577.424 142.063 578.303C141.751 579.179 141.17 579.965 140.32 580.662ZM139.215 579.315C139.735 578.889 140.075 578.388 140.236 577.812C140.396 577.235 140.381 576.621 140.19 575.97C140.004 575.315 139.643 574.661 139.108 574.008L139.098 573.996C138.559 573.34 137.989 572.858 137.387 572.55C136.785 572.235 136.188 572.102 135.594 572.151C134.998 572.195 134.44 572.431 133.92 572.857C133.405 573.279 133.065 573.78 132.9 574.36C132.736 574.932 132.747 575.546 132.934 576.201C133.122 576.848 133.485 577.501 134.023 578.157L134.033 578.169C134.568 578.822 135.134 579.307 135.732 579.625C136.333 579.94 136.932 580.075 137.529 580.031C138.13 579.983 138.692 579.744 139.215 579.315ZM146.05 575.6L138.903 566.882L140.691 565.416L148.816 569.979L148.919 569.894L146.031 561.038L147.82 559.571L154.967 568.289L153.566 569.438L148.484 563.24L147.722 563.864L147.402 560.318L151.04 571.509L149.977 572.381L139.723 566.614L143.137 567.624L142.37 568.253L147.452 574.451L146.05 575.6ZM132.432 612.628L126.542 605.445L126.434 605.534L125.518 608.841L124.319 607.379L125.284 603.911L126.837 602.637L133.985 611.355L132.432 612.628ZM139.782 606.966C139.089 607.534 138.343 607.836 137.544 607.872C136.748 607.904 135.937 607.687 135.11 607.22C134.283 606.753 133.485 606.051 132.715 605.112L132.705 605.1C131.936 604.162 131.405 603.243 131.113 602.345C130.817 601.442 130.763 600.604 130.951 599.83C131.142 599.054 131.585 598.381 132.277 597.813C132.97 597.245 133.716 596.944 134.515 596.908C135.314 596.872 136.128 597.088 136.955 597.555C137.779 598.017 138.575 598.718 139.345 599.656L139.355 599.669C140.124 600.607 140.657 601.528 140.952 602.43C141.248 603.333 141.3 604.173 141.108 604.949C140.917 605.726 140.474 606.398 139.782 606.966ZM138.746 605.704C139.117 605.4 139.324 605.008 139.368 604.527C139.412 604.047 139.301 603.505 139.035 602.901C138.77 602.29 138.355 601.64 137.79 600.951L137.78 600.939C137.215 600.251 136.661 599.718 136.117 599.343C135.574 598.959 135.064 598.744 134.588 598.697C134.108 598.646 133.683 598.772 133.313 599.076C132.942 599.38 132.735 599.772 132.691 600.253C132.648 600.726 132.759 601.268 133.024 601.879C133.29 602.482 133.705 603.129 134.27 603.817L134.28 603.829C134.845 604.518 135.398 605.054 135.942 605.437C136.485 605.813 136.995 606.028 137.471 606.083C137.951 606.134 138.376 606.007 138.746 605.704ZM148.01 600.22C147.317 600.788 146.571 601.09 145.772 601.125C144.977 601.158 144.166 600.94 143.339 600.474C142.511 600.007 141.713 599.304 140.944 598.366L140.934 598.354C140.164 597.415 139.633 596.497 139.341 595.598C139.046 594.695 138.992 593.857 139.179 593.084C139.371 592.307 139.813 591.635 140.506 591.067C141.199 590.499 141.945 590.197 142.744 590.162C143.543 590.126 144.356 590.342 145.183 590.808C146.007 591.271 146.804 591.972 147.573 592.91L147.583 592.922C148.353 593.861 148.885 594.781 149.181 595.684C149.476 596.586 149.528 597.426 149.337 598.203C149.145 598.98 148.703 599.652 148.01 600.22ZM146.975 598.957C147.345 598.653 147.553 598.261 147.596 597.781C147.64 597.3 147.529 596.758 147.263 596.155C146.998 595.544 146.583 594.894 146.019 594.205L146.009 594.193C145.444 593.504 144.89 592.972 144.346 592.596C143.803 592.213 143.293 591.998 142.816 591.951C142.337 591.9 141.912 592.026 141.541 592.33C141.171 592.633 140.963 593.026 140.919 593.506C140.876 593.979 140.987 594.521 141.253 595.132C141.519 595.736 141.934 596.382 142.498 597.071L142.508 597.083C143.073 597.772 143.627 598.308 144.17 598.691C144.714 599.067 145.224 599.282 145.699 599.336C146.179 599.387 146.604 599.261 146.975 598.957ZM150.992 589.895C150.553 590.255 150.103 590.479 149.643 590.567C149.187 590.651 148.743 590.604 148.313 590.424C147.88 590.241 147.479 589.923 147.109 589.472L147.104 589.466C146.74 589.023 146.511 588.571 146.416 588.11C146.325 587.646 146.368 587.201 146.543 586.774C146.719 586.34 147.025 585.944 147.46 585.588C147.899 585.228 148.348 585.004 148.809 584.916C149.265 584.825 149.711 584.871 150.144 585.054C150.581 585.234 150.982 585.546 151.345 585.989L151.35 585.995C151.72 586.446 151.952 586.902 152.047 587.363C152.142 587.824 152.102 588.271 151.925 588.705C151.746 589.136 151.435 589.532 150.992 589.895ZM150.283 589.031C150.613 588.761 150.775 588.44 150.767 588.069C150.756 587.694 150.584 587.303 150.25 586.897L150.245 586.89C149.918 586.492 149.57 586.252 149.201 586.171C148.835 586.087 148.489 586.178 148.163 586.446C147.841 586.71 147.683 587.031 147.69 587.409C147.697 587.787 147.864 588.176 148.191 588.575L148.196 588.581C148.53 588.987 148.879 589.233 149.245 589.317C149.611 589.394 149.957 589.299 150.283 589.031Z" fill="black"/>
<path d="M155.266 193.281C154.161 193.281 153.211 193.042 152.414 192.562C151.622 192.078 151.01 191.393 150.578 190.508C150.146 189.622 149.93 188.576 149.93 187.367V187.352C149.93 186.138 150.146 185.091 150.578 184.211C151.016 183.326 151.633 182.643 152.43 182.164C153.232 181.685 154.177 181.445 155.266 181.445C156.359 181.445 157.305 181.685 158.102 182.164C158.898 182.643 159.513 183.326 159.945 184.211C160.378 185.096 160.594 186.143 160.594 187.352V187.367C160.594 188.576 160.378 189.622 159.945 190.508C159.518 191.393 158.906 192.078 158.109 192.562C157.312 193.042 156.365 193.281 155.266 193.281ZM155.266 191.539C155.938 191.539 156.518 191.367 157.008 191.023C157.497 190.68 157.875 190.195 158.141 189.57C158.411 188.945 158.547 188.211 158.547 187.367V187.352C158.547 186.503 158.411 185.768 158.141 185.148C157.875 184.523 157.497 184.042 157.008 183.703C156.518 183.359 155.938 183.188 155.266 183.188C154.599 183.188 154.018 183.359 153.523 183.703C153.034 184.042 152.654 184.523 152.383 185.148C152.117 185.768 151.984 186.503 151.984 187.352V187.367C151.984 188.211 152.115 188.945 152.375 189.57C152.641 190.195 153.018 190.68 153.508 191.023C154.003 191.367 154.589 191.539 155.266 191.539ZM166.367 193.172C165.508 193.172 164.773 192.995 164.164 192.641C163.555 192.286 163.089 191.776 162.766 191.109C162.443 190.443 162.281 189.646 162.281 188.719V188.703C162.281 187.781 162.443 186.992 162.766 186.336C163.089 185.68 163.555 185.177 164.164 184.828C164.773 184.474 165.505 184.297 166.359 184.297C167.094 184.297 167.724 184.424 168.25 184.68C168.781 184.93 169.201 185.279 169.508 185.727C169.82 186.169 170.013 186.688 170.086 187.281V187.312H168.25L168.242 187.289C168.154 186.872 167.951 186.531 167.633 186.266C167.32 186 166.898 185.867 166.367 185.867C165.924 185.867 165.544 185.979 165.227 186.203C164.914 186.427 164.674 186.75 164.508 187.172C164.341 187.594 164.258 188.104 164.258 188.703V188.719C164.258 189.323 164.341 189.841 164.508 190.273C164.68 190.701 164.922 191.029 165.234 191.258C165.547 191.482 165.924 191.594 166.367 191.594C166.872 191.594 167.279 191.479 167.586 191.25C167.898 191.021 168.115 190.682 168.234 190.234L168.25 190.203L170.078 190.195L170.07 190.266C169.977 190.844 169.773 191.352 169.461 191.789C169.154 192.227 168.742 192.568 168.227 192.812C167.711 193.052 167.091 193.172 166.367 193.172ZM175.406 193.039C174.427 193.039 173.721 192.859 173.289 192.5C172.857 192.141 172.641 191.552 172.641 190.734V185.969H171.312V184.461H172.641V182.367H174.617V184.461H176.414V185.969H174.617V190.273C174.617 190.695 174.706 191.005 174.883 191.203C175.065 191.396 175.357 191.492 175.758 191.492C175.898 191.492 176.013 191.49 176.102 191.484C176.195 191.474 176.299 191.464 176.414 191.453V192.953C176.279 192.979 176.122 193 175.945 193.016C175.773 193.031 175.594 193.039 175.406 193.039ZM185.383 193V183.711H185.242L182.438 185.688V183.797L185.383 181.727H187.391V193H185.383ZM194.656 193.281C193.76 193.281 192.992 193.042 192.352 192.562C191.716 192.083 191.227 191.401 190.883 190.516C190.539 189.63 190.367 188.581 190.367 187.367V187.352C190.367 186.138 190.539 185.091 190.883 184.211C191.227 183.326 191.716 182.643 192.352 182.164C192.992 181.685 193.76 181.445 194.656 181.445C195.552 181.445 196.32 181.685 196.961 182.164C197.602 182.643 198.094 183.326 198.438 184.211C198.781 185.091 198.953 186.138 198.953 187.352V187.367C198.953 188.581 198.781 189.63 198.438 190.516C198.094 191.401 197.602 192.083 196.961 192.562C196.32 193.042 195.552 193.281 194.656 193.281ZM194.656 191.648C195.135 191.648 195.544 191.477 195.883 191.133C196.221 190.789 196.479 190.299 196.656 189.664C196.839 189.023 196.93 188.258 196.93 187.367V187.352C196.93 186.461 196.839 185.698 196.656 185.062C196.479 184.422 196.221 183.932 195.883 183.594C195.544 183.25 195.135 183.078 194.656 183.078C194.177 183.078 193.768 183.25 193.43 183.594C193.096 183.932 192.839 184.422 192.656 185.062C192.479 185.698 192.391 186.461 192.391 187.352V187.367C192.391 188.258 192.479 189.023 192.656 189.664C192.839 190.299 193.096 190.789 193.43 191.133C193.768 191.477 194.177 191.648 194.656 191.648Z" fill="black"/>
<path d="M59.3594 411.281C58.2552 411.281 57.3047 411.042 56.5078 410.562C55.7161 410.078 55.1042 409.393 54.6719 408.508C54.2396 407.622 54.0234 406.576 54.0234 405.367V405.352C54.0234 404.138 54.2396 403.091 54.6719 402.211C55.1094 401.326 55.7266 400.643 56.5234 400.164C57.3255 399.685 58.2708 399.445 59.3594 399.445C60.4531 399.445 61.3984 399.685 62.1953 400.164C62.9922 400.643 63.6068 401.326 64.0391 402.211C64.4714 403.096 64.6875 404.143 64.6875 405.352V405.367C64.6875 406.576 64.4714 407.622 64.0391 408.508C63.612 409.393 63 410.078 62.2031 410.562C61.4062 411.042 60.4583 411.281 59.3594 411.281ZM59.3594 409.539C60.0312 409.539 60.612 409.367 61.1016 409.023C61.5911 408.68 61.9688 408.195 62.2344 407.57C62.5052 406.945 62.6406 406.211 62.6406 405.367V405.352C62.6406 404.503 62.5052 403.768 62.2344 403.148C61.9688 402.523 61.5911 402.042 61.1016 401.703C60.612 401.359 60.0312 401.188 59.3594 401.188C58.6927 401.188 58.112 401.359 57.6172 401.703C57.1276 402.042 56.7474 402.523 56.4766 403.148C56.2109 403.768 56.0781 404.503 56.0781 405.352V405.367C56.0781 406.211 56.2083 406.945 56.4688 407.57C56.7344 408.195 57.112 408.68 57.6016 409.023C58.0964 409.367 58.6823 409.539 59.3594 409.539ZM70.4609 411.172C69.6016 411.172 68.8672 410.995 68.2578 410.641C67.6484 410.286 67.1823 409.776 66.8594 409.109C66.5365 408.443 66.375 407.646 66.375 406.719V406.703C66.375 405.781 66.5365 404.992 66.8594 404.336C67.1823 403.68 67.6484 403.177 68.2578 402.828C68.8672 402.474 69.599 402.297 70.4531 402.297C71.1875 402.297 71.8177 402.424 72.3438 402.68C72.875 402.93 73.2943 403.279 73.6016 403.727C73.9141 404.169 74.1068 404.688 74.1797 405.281V405.312H72.3438L72.3359 405.289C72.2474 404.872 72.0443 404.531 71.7266 404.266C71.4141 404 70.9922 403.867 70.4609 403.867C70.0182 403.867 69.638 403.979 69.3203 404.203C69.0078 404.427 68.7682 404.75 68.6016 405.172C68.4349 405.594 68.3516 406.104 68.3516 406.703V406.719C68.3516 407.323 68.4349 407.841 68.6016 408.273C68.7734 408.701 69.0156 409.029 69.3281 409.258C69.6406 409.482 70.0182 409.594 70.4609 409.594C70.9661 409.594 71.3724 409.479 71.6797 409.25C71.9922 409.021 72.2083 408.682 72.3281 408.234L72.3438 408.203L74.1719 408.195L74.1641 408.266C74.0703 408.844 73.8672 409.352 73.5547 409.789C73.2474 410.227 72.8359 410.568 72.3203 410.812C71.8047 411.052 71.1849 411.172 70.4609 411.172ZM79.5 411.039C78.5208 411.039 77.8151 410.859 77.3828 410.5C76.9505 410.141 76.7344 409.552 76.7344 408.734V403.969H75.4062V402.461H76.7344V400.367H78.7109V402.461H80.5078V403.969H78.7109V408.273C78.7109 408.695 78.7995 409.005 78.9766 409.203C79.1589 409.396 79.4505 409.492 79.8516 409.492C79.9922 409.492 80.1068 409.49 80.1953 409.484C80.2891 409.474 80.3932 409.464 80.5078 409.453V410.953C80.3724 410.979 80.2161 411 80.0391 411.016C79.8672 411.031 79.6875 411.039 79.5 411.039ZM89.4766 411V401.711H89.3359L86.5312 403.688V401.797L89.4766 399.727H91.4844V411H89.4766ZM98.6953 411.227C97.8724 411.227 97.151 411.089 96.5312 410.812C95.9167 410.536 95.4297 410.154 95.0703 409.664C94.7161 409.169 94.513 408.599 94.4609 407.953L94.4531 407.859H96.375L96.3828 407.945C96.4193 408.263 96.5365 408.547 96.7344 408.797C96.9323 409.042 97.1979 409.234 97.5312 409.375C97.8646 409.51 98.2526 409.578 98.6953 409.578C99.1276 409.578 99.5052 409.503 99.8281 409.352C100.156 409.201 100.411 408.992 100.594 408.727C100.776 408.461 100.867 408.154 100.867 407.805V407.789C100.867 407.195 100.661 406.74 100.25 406.422C99.8385 406.104 99.2708 405.945 98.5469 405.945H97.2109V404.445H98.5078C98.9193 404.445 99.2812 404.372 99.5938 404.227C99.9062 404.081 100.148 403.883 100.32 403.633C100.492 403.378 100.578 403.086 100.578 402.758V402.742C100.578 402.393 100.503 402.096 100.352 401.852C100.206 401.607 99.9896 401.419 99.7031 401.289C99.4219 401.159 99.0807 401.094 98.6797 401.094C98.2839 401.094 97.9323 401.161 97.625 401.297C97.3229 401.432 97.0807 401.625 96.8984 401.875C96.7161 402.12 96.6068 402.409 96.5703 402.742L96.5625 402.82H94.6953L94.7031 402.727C94.7604 402.076 94.9583 401.51 95.2969 401.031C95.6406 400.547 96.099 400.172 96.6719 399.906C97.25 399.635 97.9193 399.5 98.6797 399.5C99.4557 399.5 100.13 399.628 100.703 399.883C101.276 400.133 101.719 400.479 102.031 400.922C102.349 401.365 102.508 401.883 102.508 402.477V402.492C102.508 402.956 102.404 403.367 102.195 403.727C101.992 404.081 101.711 404.375 101.352 404.609C100.997 404.844 100.594 405.008 100.141 405.102V405.141C100.974 405.219 101.643 405.495 102.148 405.969C102.654 406.438 102.906 407.062 102.906 407.844V407.859C102.906 408.516 102.729 409.099 102.375 409.609C102.021 410.115 101.526 410.51 100.891 410.797C100.26 411.083 99.5286 411.227 98.6953 411.227Z" fill="black"/>
<path d="M210.329 730.569L201.685 726.444L200.191 729.574L198.661 728.844L202.517 720.764L204.047 721.494L202.553 724.625L211.197 728.75L210.329 730.569ZM213.979 723.247C213.748 723.731 213.446 724.121 213.074 724.417C212.705 724.708 212.296 724.882 211.847 724.939C211.396 724.989 210.935 724.902 210.465 724.678L210.451 724.671C209.995 724.454 209.657 724.154 209.435 723.771C209.209 723.386 209.106 722.93 209.127 722.403C209.148 721.877 209.291 721.293 209.556 720.652L210.739 717.719L211.895 718.271L210.823 720.953C210.616 721.46 210.545 721.874 210.612 722.194C210.678 722.515 210.871 722.751 211.191 722.904L211.205 722.91C211.534 723.067 211.85 723.065 212.152 722.903C212.456 722.737 212.702 722.459 212.888 722.069C213.056 721.716 213.136 721.367 213.127 721.023C213.119 720.678 213.033 720.369 212.869 720.095C212.701 719.818 212.464 719.607 212.159 719.461L209.719 718.297C209.333 718.113 208.981 718.095 208.663 718.243C208.339 718.389 208.063 718.701 207.834 719.181C207.644 719.58 207.558 719.941 207.578 720.262C207.593 720.581 207.706 720.845 207.918 721.056L207.942 721.076L207.152 722.733L207.092 722.696C206.686 722.433 206.389 722.083 206.199 721.647C206.009 721.21 205.936 720.716 205.979 720.165C206.023 719.615 206.189 719.036 206.479 718.43C206.797 717.763 207.17 717.248 207.596 716.886C208.018 716.522 208.482 716.313 208.986 716.259C209.486 716.203 210.006 716.305 210.547 716.562L215.814 719.076L214.986 720.81L213.928 720.306L213.871 720.426C214.048 720.683 214.172 720.968 214.243 721.278C214.316 721.585 214.332 721.903 214.289 722.235C214.246 722.567 214.143 722.904 213.979 723.247ZM216.82 716.968L209.113 713.29L209.951 711.534L211.135 712.1L211.193 711.98C210.842 711.651 210.632 711.262 210.563 710.814C210.497 710.361 210.584 709.88 210.827 709.373C210.89 709.241 210.961 709.116 211.04 708.998C211.117 708.874 211.187 708.774 211.251 708.701L212.823 709.451C212.723 709.577 212.631 709.709 212.548 709.848C212.462 709.98 212.382 710.123 212.308 710.279C212.121 710.669 212.032 711.044 212.038 711.405C212.045 711.766 212.146 712.092 212.343 712.382C212.534 712.669 212.814 712.901 213.18 713.076L217.657 715.212L216.82 716.968ZM223.881 709.136C223.558 709.813 223.19 710.356 222.775 710.764C222.363 711.167 221.926 711.432 221.462 711.557C221.003 711.684 220.543 711.675 220.081 711.53L220.063 711.513L220.898 709.764L220.926 709.76C221.197 709.82 221.479 709.744 221.771 709.531C222.07 709.316 222.336 708.964 222.569 708.475C222.856 707.874 222.944 707.344 222.833 706.887C222.725 706.426 222.424 706.077 221.93 705.842L220.449 705.135L220.392 705.255C220.6 705.533 220.744 705.836 220.825 706.163C220.907 706.485 220.926 706.82 220.882 707.168C220.834 707.509 220.725 707.858 220.555 708.215C220.245 708.864 219.822 709.352 219.285 709.678C218.744 710.003 218.134 710.162 217.456 710.156C216.78 710.145 216.078 709.966 215.35 709.618L215.335 709.611C214.593 709.257 214.001 708.816 213.56 708.288C213.12 707.76 212.853 707.183 212.76 706.556C212.669 705.924 212.782 705.276 213.098 704.613C213.268 704.256 213.481 703.956 213.735 703.714C213.991 703.467 214.277 703.28 214.591 703.153C214.908 703.022 215.247 702.952 215.608 702.946L215.651 702.854L214.382 702.249L215.22 700.493L222.736 704.08C223.328 704.362 223.769 704.757 224.058 705.264C224.354 705.769 224.488 706.353 224.461 707.015C224.433 707.677 224.24 708.384 223.881 709.136ZM219.418 707.006C219.611 706.602 219.68 706.208 219.627 705.825C219.568 705.439 219.405 705.087 219.136 704.768C218.869 704.444 218.507 704.174 218.051 703.956L218.037 703.949C217.581 703.732 217.144 703.621 216.724 703.617C216.302 703.606 215.926 703.701 215.594 703.9C215.257 704.097 214.993 704.398 214.8 704.802C214.605 705.211 214.537 705.606 214.598 705.987C214.656 706.361 214.823 706.706 215.099 707.023C215.373 707.332 215.737 707.596 216.193 707.813L216.208 707.82C216.659 708.035 217.093 708.153 217.51 708.173C217.925 708.187 218.299 708.1 218.631 707.912C218.96 707.717 219.223 707.415 219.418 707.006ZM225.683 698.794C225.317 699.56 224.841 700.141 224.254 700.536C223.669 700.927 223.008 701.128 222.27 701.139C221.531 701.15 220.753 700.961 219.935 700.57L219.928 700.567C219.12 700.181 218.484 699.699 218.022 699.12C217.561 698.537 217.296 697.897 217.225 697.199C217.149 696.499 217.285 695.785 217.633 695.057C217.982 694.323 218.445 693.771 219.021 693.399C219.594 693.02 220.238 692.826 220.953 692.815C221.668 692.804 222.413 692.984 223.189 693.354L223.767 693.63L220.779 699.891L219.602 699.329L222.179 693.928L222.882 695.285L222.184 694.952C221.672 694.707 221.209 694.582 220.797 694.576C220.384 694.569 220.027 694.664 219.726 694.861C219.426 695.053 219.19 695.33 219.018 695.692C218.845 696.053 218.78 696.418 218.825 696.785C218.866 697.146 219.019 697.49 219.284 697.818C219.546 698.14 219.924 698.418 220.417 698.654L221.122 698.99C221.597 699.217 222.042 699.331 222.457 699.332C222.867 699.332 223.233 699.23 223.555 699.026C223.875 698.815 224.132 698.507 224.325 698.103C224.475 697.788 224.559 697.496 224.578 697.228C224.593 696.953 224.572 696.715 224.512 696.513C224.448 696.309 224.37 696.151 224.28 696.039L224.24 695.994L225.034 694.33L225.091 694.374C225.311 694.554 225.511 694.788 225.691 695.076C225.869 695.357 226.002 695.689 226.09 696.072C226.176 696.447 226.193 696.865 226.141 697.325C226.085 697.783 225.932 698.273 225.683 698.794ZM229.499 690.488C229.078 691.371 228.612 691.931 228.101 692.166C227.591 692.402 226.966 692.343 226.228 691.991L221.927 689.939L221.355 691.137L219.995 690.488L220.567 689.289L218.677 688.387L219.528 686.604L221.418 687.505L222.192 685.884L223.553 686.533L222.779 688.155L226.664 690.009C227.044 690.19 227.362 690.244 227.617 690.169C227.87 690.088 228.082 689.866 228.255 689.504C228.315 689.377 228.362 689.273 228.396 689.191C228.427 689.101 228.462 689.003 228.502 688.895L229.856 689.541C229.821 689.674 229.773 689.824 229.71 689.991C229.651 690.153 229.58 690.318 229.499 690.488ZM232.661 683.773L222.486 678.917L224.448 674.807C224.796 674.078 225.223 673.515 225.731 673.116C226.238 672.718 226.793 672.492 227.396 672.439C227.998 672.386 228.624 672.514 229.272 672.824L229.286 672.831C229.959 673.151 230.475 673.605 230.835 674.193C231.193 674.773 231.336 675.416 231.265 676.121L236.436 675.862L235.447 677.934L230.663 678.11C230.658 678.119 230.651 678.133 230.642 678.152C230.633 678.171 230.625 678.187 230.619 678.202L229.7 680.126L233.529 681.953L232.661 683.773ZM228.304 679.46L229.307 677.359C229.583 676.781 229.644 676.259 229.491 675.794C229.338 675.328 228.989 674.965 228.444 674.705L228.43 674.698C227.899 674.445 227.398 674.411 226.929 674.597C226.457 674.775 226.083 675.154 225.807 675.732L224.821 677.798L228.304 679.46ZM239.691 669.693C239.215 670.69 238.59 671.445 237.814 671.957C237.036 672.463 236.154 672.721 235.169 672.729C234.184 672.738 233.146 672.482 232.055 671.962L232.041 671.955C230.946 671.433 230.094 670.787 229.486 670.017C228.876 669.241 228.526 668.39 228.436 667.465C228.349 666.535 228.54 665.578 229.009 664.596C229.48 663.609 230.103 662.859 230.879 662.346C231.655 661.833 232.535 661.572 233.521 661.563C234.506 661.555 235.544 661.81 236.634 662.331L236.648 662.338C237.739 662.858 238.591 663.504 239.203 664.275C239.819 665.042 240.173 665.889 240.267 666.817C240.356 667.743 240.164 668.702 239.691 669.693ZM238.119 668.943C238.408 668.337 238.503 667.738 238.404 667.149C238.304 666.559 238.03 666.009 237.58 665.5C237.133 664.987 236.528 664.548 235.767 664.185L235.753 664.178C234.986 663.813 234.265 663.618 233.589 663.596C232.911 663.567 232.313 663.7 231.797 663.996C231.276 664.29 230.871 664.74 230.581 665.346C230.294 665.948 230.199 666.546 230.296 667.141C230.391 667.728 230.662 668.279 231.11 668.792C231.555 669.299 232.16 669.735 232.926 670.101L232.94 670.108C233.702 670.471 234.421 670.67 235.097 670.704C235.775 670.733 236.375 670.601 236.896 670.307C237.42 670.009 237.827 669.554 238.119 668.943ZM242.728 662.677L232.554 657.821L233.55 655.734L242.843 656.412L242.9 656.292L236.524 649.501L237.52 647.414L247.694 652.27L246.914 653.905L239.679 650.453L239.255 651.342L237.459 648.268L245.507 656.853L244.915 658.093L233.182 657.23L236.702 656.693L236.274 657.589L243.509 661.041L242.728 662.677ZM240.462 713.863L232.078 709.862L232.018 709.989L232.594 713.372L230.888 712.557L230.288 709.008L231.152 707.196L241.327 712.051L240.462 713.863ZM244.637 705.641C244.282 706.383 243.847 706.975 243.331 707.415C242.817 707.851 242.262 708.126 241.665 708.239C241.066 708.346 240.464 708.283 239.859 708.052L239.771 708.019L240.598 706.284L240.679 706.314C240.982 706.418 241.288 706.435 241.599 706.364C241.906 706.291 242.194 706.134 242.464 705.894C242.73 705.651 242.958 705.33 243.149 704.931C243.335 704.54 243.43 704.167 243.432 703.811C243.437 703.449 243.359 703.129 243.198 702.851C243.037 702.572 242.799 702.357 242.484 702.207L242.47 702.2C241.934 701.944 241.434 701.934 240.97 702.168C240.506 702.403 240.118 702.847 239.806 703.5L239.231 704.706L237.877 704.06L238.436 702.889C238.613 702.518 238.703 702.16 238.706 701.815C238.709 701.47 238.635 701.166 238.483 700.904C238.327 700.638 238.101 700.435 237.805 700.294L237.79 700.287C237.475 700.137 237.175 700.077 236.889 700.108C236.605 700.134 236.343 700.249 236.102 700.451C235.863 700.649 235.658 700.929 235.485 701.291C235.315 701.648 235.224 701.994 235.214 702.33C235.206 702.661 235.276 702.963 235.423 703.235C235.565 703.505 235.779 703.728 236.064 703.904L236.131 703.945L235.327 705.63L235.246 705.583C234.683 705.251 234.258 704.829 233.972 704.317C233.683 703.798 233.542 703.223 233.549 702.591C233.553 701.953 233.719 701.291 234.047 700.604C234.381 699.904 234.787 699.35 235.264 698.943C235.736 698.534 236.239 698.283 236.773 698.192C237.31 698.096 237.846 698.176 238.382 698.431L238.396 698.438C238.814 698.638 239.141 698.909 239.375 699.252C239.607 699.588 239.752 699.968 239.809 700.393C239.868 700.814 239.842 701.249 239.731 701.698L239.767 701.715C240.196 700.997 240.733 700.511 241.379 700.26C242.019 700.006 242.692 700.047 243.397 700.383L243.411 700.39C244.004 700.673 244.454 701.084 244.762 701.623C245.065 702.16 245.21 702.777 245.194 703.474C245.181 704.166 244.996 704.888 244.637 705.641ZM249.185 696.237C248.855 696.928 248.435 697.475 247.925 697.878C247.416 698.281 246.866 698.533 246.276 698.632C245.681 698.729 245.095 698.669 244.518 698.451L244.423 698.414L245.221 696.743L245.277 696.753C245.577 696.838 245.881 696.848 246.189 696.782C246.498 696.715 246.787 696.576 247.055 696.364C247.319 696.149 247.534 695.868 247.7 695.52C247.889 695.125 247.968 694.736 247.937 694.352C247.909 693.964 247.783 693.612 247.558 693.297C247.329 692.98 247.016 692.727 246.622 692.538L246.607 692.532C246.213 692.343 245.823 692.264 245.439 692.294C245.053 692.318 244.704 692.44 244.391 692.66C244.076 692.873 243.825 693.174 243.639 693.565C243.502 693.851 243.417 694.137 243.385 694.422C243.356 694.702 243.38 694.976 243.46 695.245C243.495 695.377 243.543 695.507 243.603 695.634C243.659 695.759 243.729 695.879 243.813 695.994L243.069 697.552L237.347 694.215L240.261 688.109L241.748 688.819L239.511 693.508L242.475 695.277L242.536 695.15C242.373 694.9 242.263 694.628 242.206 694.335C242.145 694.041 242.138 693.734 242.186 693.417C242.229 693.097 242.325 692.779 242.476 692.464C242.781 691.825 243.196 691.331 243.72 690.981C244.243 690.624 244.825 690.426 245.467 690.386C246.105 690.344 246.748 690.478 247.397 690.787L247.411 690.794C248.116 691.13 248.66 691.586 249.043 692.162C249.424 692.73 249.63 693.368 249.662 694.076C249.694 694.783 249.535 695.504 249.185 696.237ZM247.383 685.864C247.138 686.376 246.826 686.77 246.447 687.045C246.07 687.315 245.649 687.46 245.183 687.48C244.713 687.498 244.215 687.382 243.688 687.13L243.681 687.127C243.164 686.88 242.765 686.569 242.483 686.192C242.203 685.81 242.052 685.389 242.03 684.928C242.005 684.46 242.113 683.972 242.356 683.465C242.6 682.952 242.912 682.559 243.291 682.284C243.666 682.007 244.088 681.859 244.559 681.841C245.031 681.819 245.526 681.931 246.043 682.177L246.05 682.181C246.577 682.432 246.981 682.746 247.263 683.123C247.544 683.5 247.698 683.922 247.723 684.39C247.743 684.856 247.63 685.347 247.383 685.864ZM246.375 685.383C246.559 684.997 246.568 684.638 246.404 684.306C246.234 683.971 245.912 683.691 245.438 683.464L245.431 683.461C244.965 683.239 244.548 683.169 244.179 683.253C243.813 683.332 243.539 683.562 243.357 683.943C243.177 684.319 243.171 684.676 243.338 685.016C243.505 685.355 243.821 685.636 244.287 685.858L244.294 685.861C244.768 686.088 245.189 686.162 245.556 686.083C245.92 685.997 246.193 685.763 246.375 685.383Z" fill="black"/>
<path d="M127 404L379 406" stroke="black" stroke-width="0.907625"/>
<path d="M225.679 191.871L379 408" stroke="black" stroke-width="0.907625"/>
<path d="M372.968 170.271C372.104 170.271 371.364 170.04 370.746 169.578C370.133 169.116 369.661 168.458 369.329 167.604C368.998 166.75 368.832 165.738 368.832 164.568V164.553C368.832 163.383 368.998 162.373 369.329 161.524C369.661 160.67 370.133 160.012 370.746 159.55C371.364 159.088 372.104 158.857 372.968 158.857C373.832 158.857 374.573 159.088 375.191 159.55C375.809 160.012 376.283 160.67 376.615 161.524C376.946 162.373 377.112 163.383 377.112 164.553V164.568C377.112 165.738 376.946 166.75 376.615 167.604C376.283 168.458 375.809 169.116 375.191 169.578C374.573 170.04 373.832 170.271 372.968 170.271ZM372.968 168.697C373.43 168.697 373.825 168.531 374.151 168.199C374.478 167.868 374.726 167.396 374.897 166.783C375.073 166.165 375.161 165.427 375.161 164.568V164.553C375.161 163.694 375.073 162.958 374.897 162.345C374.726 161.728 374.478 161.256 374.151 160.929C373.825 160.598 373.43 160.432 372.968 160.432C372.506 160.432 372.112 160.598 371.785 160.929C371.464 161.256 371.215 161.728 371.04 162.345C370.869 162.958 370.783 163.694 370.783 164.553V164.568C370.783 165.427 370.869 166.165 371.04 166.783C371.215 167.396 371.464 167.868 371.785 168.199C372.112 168.531 372.506 168.697 372.968 168.697Z" fill="black"/>
<circle cx="225" cy="191" r="4" fill="#FF0000"/>
<circle cx="123" cy="404" r="4" fill="#FF0000"/>
<path d="M237.926 220V217.701H232.066V215.949C232.381 215.412 232.697 214.873 233.012 214.331C233.333 213.788 233.657 213.249 233.983 212.712C234.315 212.17 234.645 211.636 234.971 211.11C235.303 210.579 235.632 210.056 235.959 209.541C236.291 209.021 236.623 208.514 236.955 208.022H239.968V215.933H241.587V217.701H239.968V220H237.926ZM234.058 215.982H237.959V209.732H237.835C237.591 210.108 237.34 210.496 237.08 210.894C236.825 211.292 236.568 211.699 236.308 212.114C236.048 212.529 235.79 212.947 235.536 213.368C235.281 213.783 235.029 214.201 234.78 214.621C234.531 215.036 234.291 215.448 234.058 215.858V215.982ZM248.194 220.299C247.243 220.299 246.426 220.044 245.746 219.535C245.07 219.026 244.55 218.301 244.185 217.36C243.82 216.42 243.637 215.305 243.637 214.015V213.999C243.637 212.709 243.82 211.597 244.185 210.662C244.55 209.721 245.07 208.996 245.746 208.487C246.426 207.978 247.243 207.723 248.194 207.723C249.146 207.723 249.962 207.978 250.643 208.487C251.324 208.996 251.847 209.721 252.212 210.662C252.577 211.597 252.76 212.709 252.76 213.999V214.015C252.76 215.305 252.577 216.42 252.212 217.36C251.847 218.301 251.324 219.026 250.643 219.535C249.962 220.044 249.146 220.299 248.194 220.299ZM248.194 218.564C248.703 218.564 249.138 218.381 249.498 218.016C249.857 217.651 250.131 217.131 250.319 216.456C250.513 215.775 250.61 214.961 250.61 214.015V213.999C250.61 213.052 250.513 212.242 250.319 211.566C250.131 210.886 249.857 210.366 249.498 210.006C249.138 209.641 248.703 209.458 248.194 209.458C247.685 209.458 247.251 209.641 246.891 210.006C246.537 210.366 246.263 210.886 246.069 211.566C245.881 212.242 245.787 213.052 245.787 213.999V214.015C245.787 214.961 245.881 215.775 246.069 216.456C246.263 217.131 246.537 217.651 246.891 218.016C247.251 218.381 247.685 218.564 248.194 218.564Z" fill="black"/>
<path d="M146.673 398.723C147.315 398.723 147.924 398.842 148.499 399.08C149.075 399.312 149.584 399.678 150.026 400.176C150.475 400.668 150.826 401.302 151.081 402.077C151.335 402.846 151.462 403.773 151.462 404.857V404.874C151.462 406.219 151.269 407.37 150.881 408.327C150.494 409.285 149.938 410.021 149.213 410.535C148.493 411.044 147.633 411.299 146.631 411.299C145.895 411.299 145.231 411.166 144.639 410.9C144.053 410.629 143.566 410.258 143.178 409.788C142.796 409.312 142.539 408.77 142.406 408.161L142.39 408.07H144.49L144.523 408.153C144.628 408.43 144.778 408.673 144.971 408.883C145.17 409.094 145.408 409.257 145.685 409.373C145.967 409.484 146.283 409.539 146.631 409.539C147.262 409.539 147.777 409.354 148.175 408.983C148.579 408.607 148.881 408.106 149.08 407.48C149.285 406.85 149.401 406.152 149.429 405.389C149.434 405.306 149.437 405.225 149.437 405.148C149.437 405.065 149.437 404.985 149.437 404.907L149.063 402.907C149.063 402.453 148.958 402.041 148.748 401.67C148.538 401.299 148.253 401.006 147.893 400.79C147.539 400.574 147.138 400.466 146.689 400.466C146.258 400.466 145.862 400.571 145.502 400.782C145.143 400.992 144.855 401.28 144.639 401.645C144.423 402.005 144.315 402.409 144.315 402.857V402.874C144.315 403.338 144.418 403.751 144.623 404.11C144.827 404.465 145.107 404.744 145.461 404.949C145.815 405.153 146.219 405.256 146.673 405.256C147.127 405.256 147.533 405.156 147.893 404.957C148.253 404.758 148.538 404.481 148.748 404.127C148.958 403.773 149.063 403.372 149.063 402.923V402.907H149.562V405.115H149.271C149.127 405.43 148.914 405.723 148.632 405.995C148.35 406.266 148.001 406.484 147.586 406.65C147.176 406.816 146.695 406.899 146.142 406.899C145.378 406.899 144.703 406.728 144.116 406.385C143.53 406.042 143.068 405.571 142.73 404.974C142.398 404.376 142.232 403.701 142.232 402.948V402.932C142.232 402.118 142.42 401.396 142.796 400.765C143.178 400.129 143.704 399.631 144.374 399.271C145.049 398.906 145.815 398.723 146.673 398.723ZM158.161 411.299C157.209 411.299 156.393 411.044 155.712 410.535C155.037 410.026 154.517 409.301 154.152 408.36C153.787 407.42 153.604 406.305 153.604 405.015V404.999C153.604 403.709 153.787 402.597 154.152 401.662C154.517 400.721 155.037 399.996 155.712 399.487C156.393 398.978 157.209 398.723 158.161 398.723C159.113 398.723 159.929 398.978 160.61 399.487C161.291 399.996 161.813 400.721 162.179 401.662C162.544 402.597 162.727 403.709 162.727 404.999V405.015C162.727 406.305 162.544 407.42 162.179 408.36C161.813 409.301 161.291 410.026 160.61 410.535C159.929 411.044 159.113 411.299 158.161 411.299ZM158.161 409.564C158.67 409.564 159.105 409.381 159.464 409.016C159.824 408.651 160.098 408.131 160.286 407.456C160.48 406.775 160.577 405.961 160.577 405.015V404.999C160.577 404.052 160.48 403.242 160.286 402.566C160.098 401.886 159.824 401.366 159.464 401.006C159.105 400.641 158.67 400.458 158.161 400.458C157.652 400.458 157.218 400.641 156.858 401.006C156.504 401.366 156.23 401.886 156.036 402.566C155.848 403.242 155.754 404.052 155.754 404.999V405.015C155.754 405.961 155.848 406.775 156.036 407.456C156.23 408.131 156.504 408.651 156.858 409.016C157.218 409.381 157.652 409.564 158.161 409.564Z" fill="black"/>
<g filter="url(#filter1_d_380_2802)">
<path d="M393 145C324.674 145 259.147 172.405 210.833 221.187C162.519 269.969 135.775 337.696 135 405.5C129.775 498.196 188 572 188 572L262.884 512.405L393 405.12L393 145Z" fill="#CCCFEF"/>
</g>
<path d="M396 404.5L112 637.5" stroke="#FF0000" stroke-width="3.6305"/>
<path d="M395 403L239 736.5" stroke="black" stroke-width="3.6305"/>
<g filter="url(#filter2_d_380_2802)">
<rect x="143" y="391" width="43.7273" height="26" rx="13" fill="#B0D1FF"/>
<path d="M156.625 398.167C157.192 398.167 157.729 398.272 158.237 398.482C158.745 398.688 159.194 399.01 159.584 399.449C159.98 399.884 160.29 400.443 160.515 401.126C160.739 401.805 160.852 402.623 160.852 403.58V403.595C160.852 404.781 160.681 405.797 160.339 406.642C159.997 407.486 159.506 408.136 158.867 408.59C158.232 409.039 157.473 409.264 156.589 409.264C155.939 409.264 155.354 409.146 154.831 408.912C154.313 408.673 153.884 408.346 153.542 407.931C153.205 407.511 152.978 407.032 152.861 406.495L152.846 406.415H154.699L154.729 406.488C154.821 406.732 154.953 406.947 155.124 407.132C155.3 407.318 155.51 407.462 155.754 407.564C156.003 407.662 156.281 407.711 156.589 407.711C157.146 407.711 157.6 407.547 157.951 407.22C158.308 406.888 158.574 406.446 158.75 405.895C158.93 405.338 159.033 404.723 159.057 404.049C159.062 403.976 159.064 403.905 159.064 403.836C159.064 403.763 159.064 403.692 159.064 403.624L158.735 401.859C158.735 401.458 158.642 401.095 158.457 400.768C158.271 400.44 158.02 400.182 157.702 399.991C157.39 399.801 157.036 399.706 156.64 399.706C156.259 399.706 155.91 399.798 155.593 399.984C155.275 400.169 155.021 400.423 154.831 400.746C154.641 401.063 154.545 401.419 154.545 401.815V401.83C154.545 402.24 154.636 402.604 154.816 402.921C154.997 403.233 155.244 403.48 155.556 403.661C155.869 403.841 156.225 403.932 156.625 403.932C157.026 403.932 157.385 403.844 157.702 403.668C158.02 403.492 158.271 403.248 158.457 402.936C158.642 402.623 158.735 402.269 158.735 401.874V401.859H159.174V403.807H158.918C158.791 404.085 158.603 404.344 158.354 404.583C158.105 404.823 157.797 405.016 157.431 405.162C157.07 405.309 156.645 405.382 156.157 405.382C155.483 405.382 154.887 405.23 154.37 404.928C153.852 404.625 153.444 404.21 153.146 403.683C152.854 403.155 152.707 402.56 152.707 401.896V401.881C152.707 401.163 152.873 400.526 153.205 399.969C153.542 399.408 154.006 398.968 154.597 398.651C155.192 398.329 155.869 398.167 156.625 398.167ZM166.762 409.264C165.922 409.264 165.202 409.039 164.602 408.59C164.006 408.141 163.547 407.501 163.225 406.671C162.902 405.841 162.741 404.857 162.741 403.719V403.705C162.741 402.567 162.902 401.585 163.225 400.76C163.547 399.93 164.006 399.291 164.602 398.841C165.202 398.392 165.922 398.167 166.762 398.167C167.602 398.167 168.322 398.392 168.923 398.841C169.523 399.291 169.985 399.93 170.307 400.76C170.629 401.585 170.791 402.567 170.791 403.705V403.719C170.791 404.857 170.629 405.841 170.307 406.671C169.985 407.501 169.523 408.141 168.923 408.59C168.322 409.039 167.602 409.264 166.762 409.264ZM166.762 407.733C167.211 407.733 167.595 407.572 167.912 407.25C168.229 406.927 168.471 406.468 168.637 405.873C168.808 405.272 168.894 404.554 168.894 403.719V403.705C168.894 402.87 168.808 402.154 168.637 401.559C168.471 400.958 168.229 400.499 167.912 400.182C167.595 399.859 167.211 399.698 166.762 399.698C166.313 399.698 165.93 399.859 165.612 400.182C165.3 400.499 165.058 400.958 164.887 401.559C164.721 402.154 164.638 402.87 164.638 403.705V403.719C164.638 404.554 164.721 405.272 164.887 405.873C165.058 406.468 165.3 406.927 165.612 407.25C165.93 407.572 166.313 407.733 166.762 407.733ZM175.061 403.551C174.528 403.551 174.069 403.446 173.684 403.236C173.303 403.026 173.01 402.728 172.805 402.342C172.6 401.952 172.497 401.483 172.497 400.936V400.929C172.497 400.392 172.6 399.928 172.805 399.537C173.015 399.146 173.31 398.849 173.691 398.644C174.077 398.434 174.533 398.329 175.061 398.329C175.593 398.329 176.052 398.434 176.438 398.644C176.823 398.849 177.119 399.146 177.324 399.537C177.534 399.928 177.639 400.392 177.639 400.929V400.936C177.639 401.483 177.536 401.952 177.331 402.342C177.126 402.733 176.831 403.033 176.445 403.243C176.059 403.448 175.598 403.551 175.061 403.551ZM175.061 402.503C175.461 402.503 175.769 402.367 175.983 402.093C176.198 401.815 176.306 401.429 176.306 400.936V400.929C176.306 400.445 176.196 400.064 175.976 399.786C175.761 399.508 175.456 399.369 175.061 399.369C174.67 399.369 174.365 399.508 174.145 399.786C173.925 400.064 173.815 400.445 173.815 400.929V400.936C173.815 401.429 173.923 401.815 174.138 402.093C174.357 402.367 174.665 402.503 175.061 402.503Z" fill="black"/>
</g>
<g filter="url(#filter3_d_380_2802)">
<rect x="232" y="203" width="43.7273" height="26" rx="13" fill="#B0D1FF"/>
<path d="M246.885 221V218.971H241.714V217.426C241.993 216.952 242.271 216.476 242.549 215.998C242.833 215.519 243.118 215.043 243.406 214.569C243.699 214.091 243.99 213.62 244.278 213.156C244.571 212.687 244.861 212.226 245.149 211.771C245.442 211.312 245.735 210.866 246.028 210.431H248.687V217.411H250.115V218.971H248.687V221H246.885ZM243.472 217.455H246.915V211.94H246.805C246.59 212.272 246.368 212.614 246.138 212.965C245.914 213.317 245.687 213.676 245.457 214.042C245.228 214.408 245 214.777 244.776 215.148C244.551 215.514 244.329 215.883 244.109 216.254C243.89 216.62 243.677 216.984 243.472 217.345V217.455ZM255.887 221.264C255.169 221.264 254.537 221.129 253.99 220.861C253.443 220.592 253.008 220.229 252.686 219.77C252.364 219.306 252.178 218.786 252.129 218.209L252.122 218.114H253.858L253.873 218.166C253.921 218.454 254.036 218.715 254.217 218.949C254.397 219.184 254.632 219.372 254.92 219.513C255.208 219.65 255.533 219.718 255.894 219.718C256.304 219.718 256.666 219.628 256.978 219.447C257.295 219.267 257.542 219.018 257.718 218.7C257.894 218.378 257.981 218.012 257.981 217.602V217.587C257.981 217.177 257.891 216.815 257.71 216.503C257.535 216.186 257.291 215.939 256.978 215.763C256.67 215.583 256.314 215.492 255.909 215.492C255.611 215.492 255.335 215.536 255.081 215.624C254.832 215.712 254.61 215.844 254.415 216.02C254.317 216.103 254.227 216.195 254.144 216.298C254.061 216.396 253.987 216.503 253.924 216.62H252.305L252.818 210.431H259.161V211.977H254.29L253.99 215.199H254.122C254.268 214.96 254.454 214.757 254.678 214.591C254.903 214.42 255.159 214.291 255.447 214.203C255.735 214.11 256.043 214.064 256.37 214.064C257.034 214.064 257.62 214.215 258.128 214.518C258.641 214.816 259.043 215.229 259.336 215.756C259.629 216.278 259.776 216.876 259.776 217.55V217.565C259.776 218.297 259.61 218.942 259.278 219.499C258.951 220.05 258.494 220.482 257.908 220.795C257.322 221.107 256.648 221.264 255.887 221.264ZM263.936 215.551C263.404 215.551 262.945 215.446 262.559 215.236C262.178 215.026 261.885 214.728 261.68 214.342C261.475 213.952 261.373 213.483 261.373 212.936V212.929C261.373 212.392 261.475 211.928 261.68 211.537C261.89 211.146 262.186 210.849 262.566 210.644C262.952 210.434 263.409 210.329 263.936 210.329C264.468 210.329 264.927 210.434 265.313 210.644C265.699 210.849 265.994 211.146 266.199 211.537C266.409 211.928 266.514 212.392 266.514 212.929V212.936C266.514 213.483 266.412 213.952 266.207 214.342C266.001 214.733 265.706 215.033 265.32 215.243C264.935 215.448 264.473 215.551 263.936 215.551ZM263.936 214.503C264.336 214.503 264.644 214.367 264.859 214.093C265.074 213.815 265.181 213.429 265.181 212.936V212.929C265.181 212.445 265.071 212.064 264.852 211.786C264.637 211.508 264.332 211.369 263.936 211.369C263.545 211.369 263.24 211.508 263.021 211.786C262.801 212.064 262.691 212.445 262.691 212.929V212.936C262.691 213.429 262.798 213.815 263.013 214.093C263.233 214.367 263.541 214.503 263.936 214.503Z" fill="black"/>
</g>
<circle cx="393" cy="411" r="23" fill="#546F95"/>
<path d="M60.5127 25.8145C62.8701 25.8311 65.1943 27.2256 65.2109 31.625C65.2109 35.7754 63.335 38.166 60.3799 38.166C58.0557 38.166 56.4619 36.7217 56.1963 34.7295H58.3379C58.5537 35.6758 59.2842 36.29 60.3799 36.29C62.123 36.29 63.1025 34.7461 63.1191 32.1729H62.9863C62.3721 33.2188 61.2266 33.833 59.8984 33.833C57.7568 33.833 56.0967 32.2061 56.0801 29.9316C56.0801 27.5742 57.8398 25.7979 60.5127 25.8145ZM60.5293 27.5576C59.1846 27.5576 58.1719 28.6035 58.1885 29.8818C58.1885 31.1768 59.1514 32.1895 60.4961 32.1895C61.8242 32.1895 62.8701 31.1104 62.8535 29.8652C62.8535 28.6367 61.874 27.5576 60.5293 27.5576ZM68.332 36.5059C67.6182 36.5059 67.0371 35.9248 67.0371 35.2109C67.0371 34.5137 67.6182 33.9326 68.332 33.9326C69.0127 33.9326 69.6104 34.5137 69.6104 35.2109C69.6104 35.9248 69.0127 36.5059 68.332 36.5059ZM68.332 30.0645C67.6182 30.0645 67.0371 29.4834 67.0371 28.7695C67.0371 28.0723 67.6182 27.4912 68.332 27.4912C69.0127 27.4912 69.6104 28.0723 69.6104 28.7695C69.6104 29.4834 69.0127 30.0645 68.332 30.0645ZM71.4199 35.7588V34.0322L76.6162 25.9805H79.3057V33.9824H80.8828V35.7588H79.3057V38H77.2471V35.7588H71.4199ZM73.6279 33.9824H77.2803V28.4375H77.1475L73.6279 33.8994V33.9824ZM87.3242 25.9805V38H85.1494V28.0889H85.083L82.2773 29.8818V27.9062L85.249 25.9805H87.3242Z" fill="#191E25"/>
<path fill-rule="evenodd" clip-rule="evenodd" d="M301.115 27.0329C301.115 26.3999 300.638 25.8867 300.048 25.8867H298.982C298.393 25.8867 297.915 26.3999 297.915 27.0329V36.9669C297.915 37.5999 298.393 38.1131 298.982 38.1131H300.048C300.638 38.1131 301.115 37.5999 301.115 36.9669V27.0329ZM293.681 28.332H294.748C295.337 28.332 295.814 28.8575 295.814 29.5057V36.9394C295.814 37.5876 295.337 38.1131 294.748 38.1131H293.681C293.092 38.1131 292.614 37.5876 292.614 36.9394V29.5057C292.614 28.8575 293.092 28.332 293.681 28.332ZM289.349 30.981H288.283C287.694 30.981 287.216 31.5132 287.216 32.1697V36.9244C287.216 37.5809 287.694 38.1131 288.283 38.1131H289.349C289.938 38.1131 290.416 37.5809 290.416 36.9244V32.1697C290.416 31.5132 289.938 30.981 289.349 30.981ZM284.048 33.4263H282.982C282.393 33.4263 281.915 33.9509 281.915 34.598V36.9414C281.915 37.5885 282.393 38.1131 282.982 38.1131H284.048C284.638 38.1131 285.115 37.5885 285.115 36.9414V34.598C285.115 33.9509 284.638 33.4263 284.048 33.4263Z" fill="#191E25"/>
<path fill-rule="evenodd" clip-rule="evenodd" d="M316.686 28.3022C319.174 28.3023 321.566 29.2244 323.368 30.8779C323.504 31.0055 323.721 31.0039 323.854 30.8743L325.152 29.6108C325.22 29.545 325.257 29.456 325.257 29.3633C325.256 29.2706 325.217 29.182 325.149 29.117C320.418 24.7423 312.954 24.7423 308.223 29.117C308.155 29.1819 308.116 29.2705 308.115 29.3632C308.114 29.4559 308.152 29.545 308.22 29.6108L309.518 30.8743C309.651 31.0041 309.868 31.0057 310.004 30.8779C311.807 29.2243 314.199 28.3022 316.686 28.3022ZM316.683 32.5225C318.04 32.5224 319.349 33.0342 320.355 33.9583C320.491 34.0894 320.706 34.0866 320.838 33.9519L322.126 32.6326C322.194 32.5634 322.231 32.4695 322.23 32.3719C322.229 32.2744 322.19 32.1813 322.121 32.1135C319.057 29.2227 314.312 29.2227 311.248 32.1135C311.179 32.1813 311.139 32.2744 311.139 32.372C311.138 32.4696 311.175 32.5635 311.243 32.6326L312.53 33.9519C312.663 34.0866 312.877 34.0894 313.013 33.9583C314.019 33.0348 315.327 32.5231 316.683 32.5225ZM319.207 35.316C319.209 35.4214 319.172 35.523 319.105 35.5968L316.928 38.0515C316.865 38.1236 316.778 38.1642 316.687 38.1642C316.596 38.1642 316.509 38.1236 316.445 38.0515L314.268 35.5968C314.201 35.5229 314.164 35.4213 314.166 35.316C314.168 35.2106 314.209 35.1108 314.279 35.0402C315.669 33.7263 317.705 33.7263 319.095 35.0402C319.165 35.1109 319.206 35.2107 319.207 35.316Z" fill="#191E25"/>
<rect opacity="0.35" x="332.757" y="26" width="24" height="12" rx="3.8" stroke="#191E25"/>
<path opacity="0.4" d="M358.257 30.2812V34.3567C359.062 34.0116 359.585 33.2086 359.585 32.319C359.585 31.4294 359.062 30.6264 358.257 30.2812Z" fill="#191E25"/>
<rect x="334.257" y="27.5" width="21" height="9" rx="2.5" fill="#191E25"/>
<path d="M17.6406 97V77.2715H22.4121L28.0176 91.4492H28.0996L33.7051 77.2715H38.4766V97H34.7988V83.6562H32.8848L37.0137 77.8184L29.3574 97H26.7598L19.1035 77.8184L23.2324 83.6562H21.3184V97H17.6406ZM44.0929 101.826C43.701 101.826 43.3227 101.808 42.9581 101.771C42.5935 101.735 42.2928 101.694 42.0558 101.648V98.6816C42.2016 98.709 42.3885 98.7363 42.6163 98.7637C42.8442 98.8001 43.104 98.8184 43.3956 98.8184C43.9972 98.8184 44.4711 98.7181 44.8175 98.5176C45.1639 98.3171 45.4236 97.9707 45.5968 97.4785L45.7745 97L40.5929 82.3438H44.9816L48.2902 94.5938L47.757 93.8008H48.5089L47.9757 94.5938L51.2843 82.3438H55.4952L50.464 97.2598C50.0812 98.4082 49.5981 99.3151 49.0148 99.9805C48.4405 100.646 47.7478 101.12 46.9366 101.402C46.1254 101.685 45.1775 101.826 44.0929 101.826ZM68.9837 97.3418C67.9629 97.3418 67.0469 97.2005 66.2357 96.918C65.4336 96.6263 64.7455 96.2116 64.1712 95.6738C63.597 95.1361 63.155 94.4935 62.8451 93.7461C62.5352 92.9896 62.3666 92.1465 62.3392 91.2168L62.3255 91.0938H66.3314L66.3451 91.1758C66.3724 91.6862 66.4864 92.1374 66.6869 92.5293C66.8965 92.9212 67.1882 93.2266 67.5619 93.4453C67.9447 93.6641 68.405 93.7734 68.9427 93.7734C69.8086 93.7734 70.4694 93.5137 70.9252 92.9941C71.3809 92.4746 71.6087 91.7181 71.6087 90.7246V77.2715H75.7377V90.7656C75.7377 92.1419 75.4688 93.3223 74.931 94.3066C74.4024 95.291 73.6367 96.043 72.6341 96.5625C71.6315 97.082 70.4147 97.3418 68.9837 97.3418ZM85.9477 97.3008C84.4621 97.3008 83.1769 96.9954 82.0923 96.3848C81.0076 95.7741 80.1691 94.8991 79.5766 93.7598C78.9842 92.6204 78.688 91.2578 78.688 89.6719V89.6445C78.688 88.0677 78.9888 86.7142 79.5903 85.584C80.1919 84.4447 81.035 83.5697 82.1196 82.959C83.2042 82.3483 84.4757 82.043 85.9341 82.043C87.4015 82.043 88.6776 82.3483 89.7622 82.959C90.8559 83.5605 91.7036 84.431 92.3052 85.5703C92.9067 86.7005 93.2075 88.0586 93.2075 89.6445V89.6719C93.2075 91.2669 92.9067 92.6341 92.3052 93.7734C91.7127 94.9128 90.8742 95.7878 89.7895 96.3984C88.7049 97 87.4243 97.3008 85.9477 97.3008ZM85.9614 94.1699C86.6085 94.1699 87.1691 93.9967 87.643 93.6504C88.1261 93.2949 88.4953 92.7845 88.7505 92.1191C89.0148 91.4447 89.147 90.6289 89.147 89.6719V89.6445C89.147 88.6966 89.0148 87.89 88.7505 87.2246C88.4861 86.5592 88.1124 86.0534 87.6294 85.707C87.1463 85.3516 86.5812 85.1738 85.9341 85.1738C85.296 85.1738 84.7355 85.3516 84.2524 85.707C83.7785 86.0534 83.4093 86.5592 83.145 87.2246C82.8807 87.89 82.7485 88.6966 82.7485 89.6445V89.6719C82.7485 90.6289 82.8761 91.4447 83.1313 92.1191C83.3957 92.7845 83.7693 93.2949 84.2524 93.6504C84.7355 93.9967 85.3052 94.1699 85.9614 94.1699ZM100.642 97.3008C99.5667 97.3008 98.6507 97.082 97.8941 96.6445C97.1467 96.1979 96.5725 95.5645 96.1715 94.7441C95.7796 93.9238 95.5836 92.944 95.5836 91.8047V82.3438H99.5758V90.9707C99.5758 91.9277 99.7991 92.6706 100.246 93.1992C100.701 93.7279 101.376 93.9922 102.269 93.9922C102.716 93.9922 103.117 93.9147 103.472 93.7598C103.837 93.6048 104.147 93.3861 104.402 93.1035C104.657 92.8118 104.853 92.4701 104.99 92.0781C105.127 91.6771 105.195 91.2396 105.195 90.7656V82.3438H109.187V97H105.195V94.5801H105.113C104.858 95.1361 104.52 95.6191 104.101 96.0293C103.691 96.4395 103.194 96.7539 102.611 96.9727C102.037 97.1914 101.38 97.3008 100.642 97.3008ZM112.165 97V82.3438H116.157V84.9004H116.239C116.458 83.998 116.854 83.2962 117.428 82.7949C118.003 82.2936 118.718 82.043 119.575 82.043C119.794 82.043 120.003 82.0566 120.204 82.084C120.404 82.1113 120.578 82.1478 120.723 82.1934V85.707C120.559 85.6432 120.35 85.5931 120.094 85.5566C119.839 85.5111 119.566 85.4883 119.274 85.4883C118.618 85.4883 118.057 85.6159 117.592 85.8711C117.128 86.1263 116.772 86.5 116.526 86.9922C116.28 87.4844 116.157 88.0859 116.157 88.7969V97H112.165ZM122.744 97V82.3438H126.736V84.75H126.818C127.201 83.9115 127.766 83.2507 128.514 82.7676C129.261 82.2845 130.186 82.043 131.289 82.043C132.902 82.043 134.146 82.5306 135.021 83.5059C135.905 84.472 136.348 85.8164 136.348 87.5391V97H132.355V88.3594C132.355 87.4023 132.127 86.6641 131.672 86.1445C131.225 85.6159 130.555 85.3516 129.662 85.3516C129.07 85.3516 128.555 85.4883 128.117 85.7617C127.68 86.026 127.338 86.3997 127.092 86.8828C126.855 87.3659 126.736 87.931 126.736 88.5781V97H122.744ZM145.929 97.3008C144.434 97.3008 143.149 96.9954 142.073 96.3848C140.998 95.765 140.168 94.8854 139.585 93.7461C139.011 92.6068 138.724 91.2578 138.724 89.6992V89.6855C138.724 88.127 139.011 86.778 139.585 85.6387C140.168 84.4902 140.984 83.6061 142.032 82.9863C143.089 82.3574 144.334 82.043 145.765 82.043C147.196 82.043 148.431 82.3483 149.47 82.959C150.518 83.5605 151.325 84.4128 151.89 85.5156C152.464 86.6185 152.751 87.9082 152.751 89.3848V90.6152H140.679V88.0996H150.864L148.964 90.4512V88.9199C148.964 88.0632 148.832 87.3477 148.567 86.7734C148.303 86.1901 147.934 85.7526 147.46 85.4609C146.995 85.1693 146.453 85.0234 145.833 85.0234C145.213 85.0234 144.662 85.1738 144.179 85.4746C143.705 85.7754 143.331 86.2174 143.058 86.8008C142.793 87.375 142.661 88.0814 142.661 88.9199V90.4648C142.661 91.276 142.793 91.9688 143.058 92.543C143.331 93.1172 143.718 93.5592 144.22 93.8691C144.721 94.1699 145.318 94.3203 146.011 94.3203C146.558 94.3203 147.032 94.2337 147.433 94.0605C147.834 93.8874 148.162 93.6686 148.417 93.4043C148.672 93.14 148.845 92.8711 148.936 92.5977L148.964 92.5156H152.628L152.587 92.666C152.478 93.2038 152.263 93.7461 151.944 94.293C151.625 94.8398 151.192 95.3411 150.645 95.7969C150.108 96.2526 149.447 96.6172 148.663 96.8906C147.888 97.1641 146.977 97.3008 145.929 97.3008ZM156.945 101.826C156.553 101.826 156.175 101.808 155.811 101.771C155.446 101.735 155.145 101.694 154.908 101.648V98.6816C155.054 98.709 155.241 98.7363 155.469 98.7637C155.697 98.8001 155.956 98.8184 156.248 98.8184C156.85 98.8184 157.324 98.7181 157.67 98.5176C158.016 98.3171 158.276 97.9707 158.449 97.4785L158.627 97L153.445 82.3438H157.834L161.143 94.5938L160.609 93.8008H161.361L160.828 94.5938L164.137 82.3438H168.348L163.316 97.2598C162.934 98.4082 162.451 99.3151 161.867 99.9805C161.293 100.646 160.6 101.12 159.789 101.402C158.978 101.685 158.03 101.826 156.945 101.826Z" fill="black"/>
</g>
<defs>
<filter id="filter0_d_380_2802" x="131" y="145" width="266" height="539" filterUnits="userSpaceOnUse" color-interpolation-filters="sRGB">
<feFlood flood-opacity="0" result="BackgroundImageFix"/>
<feColorMatrix in="SourceAlpha" type="matrix" values="0 0 0 0 0 0 0 0 0 0 0 0 0 0 0 0 0 0 127 0" result="hardAlpha"/>
<feOffset dy="4"/>
<feGaussianBlur stdDeviation="2"/>
<feComposite in2="hardAlpha" operator="out"/>
<feColorMatrix type="matrix" values="0 0 0 0 0 0 0 0 0 0 0 0 0 0 0 0 0 0 0.25 0"/>
<feBlend mode="normal" in2="BackgroundImageFix" result="effect1_dropShadow_380_2802"/>
<feBlend mode="normal" in="SourceGraphic" in2="effect1_dropShadow_380_2802" result="shape"/>
</filter>
<filter id="filter1_d_380_2802" x="130.668" y="145" width="266.332" height="435" filterUnits="userSpaceOnUse" color-interpolation-filters="sRGB">
<feFlood flood-opacity="0" result="BackgroundImageFix"/>
<feColorMatrix in="SourceAlpha" type="matrix" values="0 0 0 0 0 0 0 0 0 0 0 0 0 0 0 0 0 0 127 0" result="hardAlpha"/>
<feOffset dy="4"/>
<feGaussianBlur stdDeviation="2"/>
<feComposite in2="hardAlpha" operator="out"/>
<feColorMatrix type="matrix" values="0 0 0 0 0 0 0 0 0 0 0 0 0 0 0 0 0 0 0.25 0"/>
<feBlend mode="normal" in2="BackgroundImageFix" result="effect1_dropShadow_380_2802"/>
<feBlend mode="normal" in="SourceGraphic" in2="effect1_dropShadow_380_2802" result="shape"/>
</filter>
<filter id="filter2_d_380_2802" x="138.273" y="391" width="53.1818" height="35.4545" filterUnits="userSpaceOnUse" color-interpolation-filters="sRGB">
<feFlood flood-opacity="0" result="BackgroundImageFix"/>
<feColorMatrix in="SourceAlpha" type="matrix" values="0 0 0 0 0 0 0 0 0 0 0 0 0 0 0 0 0 0 127 0" result="hardAlpha"/>
<feOffset dy="4.72727"/>
<feGaussianBlur stdDeviation="2.36364"/>
<feComposite in2="hardAlpha" operator="out"/>
<feColorMatrix type="matrix" values="0 0 0 0 0 0 0 0 0 0 0 0 0 0 0 0 0 0 0.25 0"/>
<feBlend mode="normal" in2="BackgroundImageFix" result="effect1_dropShadow_380_2802"/>
<feBlend mode="normal" in="SourceGraphic" in2="effect1_dropShadow_380_2802" result="shape"/>
</filter>
<filter id="filter3_d_380_2802" x="227.273" y="203" width="53.1818" height="35.4545" filterUnits="userSpaceOnUse" color-interpolation-filters="sRGB">
<feFlood flood-opacity="0" result="BackgroundImageFix"/>
<feColorMatrix in="SourceAlpha" type="matrix" values="0 0 0 0 0 0 0 0 0 0 0 0 0 0 0 0 0 0 127 0" result="hardAlpha"/>
<feOffset dy="4.72727"/>
<feGaussianBlur stdDeviation="2.36364"/>
<feComposite in2="hardAlpha" operator="out"/>
<feColorMatrix type="matrix" values="0 0 0 0 0 0 0 0 0 0 0 0 0 0 0 0 0 0 0.25 0"/>
<feBlend mode="normal" in2="BackgroundImageFix" result="effect1_dropShadow_380_2802"/>
<feBlend mode="normal" in="SourceGraphic" in2="effect1_dropShadow_380_2802" result="shape"/>
</filter>
<linearGradient id="paint0_linear_380_2802" x1="196.5" y1="0" x2="196.5" y2="852" gradientUnits="userSpaceOnUse">
<stop stop-color="white" stop-opacity="0.3"/>
<stop offset="1" stop-color="#8FBEFF" stop-opacity="0.36"/>
</linearGradient>
<clipPath id="clip0_380_2802">
<rect width="393" height="852" fill="white"/>
</clipPath>
</defs>
</svg>
