<svg width="393" height="852" viewBox="0 0 393 852" fill="none" xmlns="http://www.w3.org/2000/svg">
<g clip-path="url(#clip0_343_1559)">
<rect width="393" height="852" fill="white"/>
<rect width="393" height="852" fill="url(#paint0_linear_343_1559)"/>
<g filter="url(#filter0_d_343_1559)">
<path d="M393 135C324.574 135 258.951 162.972 210.566 212.763C162.182 262.554 135 330.085 135 400.5C135 470.915 162.182 538.446 210.566 588.237C258.951 638.028 324.574 666 393 666L393 400.5L393 135Z" fill="white"/>
</g>
<circle cx="237" cy="729" r="12" fill="black"/>
<path d="M99.474 593.939L101.516 592.265L102.398 593.342L100.357 595.016L99.474 593.939ZM94.8975 590.326L96.1966 589.26L105.469 600.569L104.169 601.634L94.8975 590.326ZM88.7353 597.219L90.0345 596.154L95.7864 603.17L94.4872 604.235L88.7353 597.219ZM93.909 603.529L94.8493 602.758C95.6659 602.089 96.4802 601.366 97.2923 600.59C98.1057 599.799 98.8966 598.93 99.6649 597.983L100.684 598.947C99.8906 599.915 99.079 600.801 98.2491 601.606C97.4123 602.402 96.5732 603.145 95.7319 603.835L94.7915 604.606L93.909 603.529ZM103.118 584.91C103.712 584.423 104.335 584.106 104.986 583.958C105.637 583.81 106.264 583.834 106.866 584.03C107.461 584.218 107.979 584.58 108.418 585.116C108.851 585.644 109.105 586.222 109.179 586.851C109.253 587.48 109.154 588.099 108.881 588.709C108.609 589.319 108.175 589.867 107.582 590.354C106.996 590.834 106.377 591.148 105.726 591.296C105.075 591.444 104.444 591.423 103.834 591.234C103.232 591.038 102.714 590.676 102.281 590.148C101.842 589.612 101.588 589.033 101.521 588.413C101.455 587.777 101.558 587.154 101.831 586.545C102.103 585.935 102.532 585.39 103.118 584.91ZM104.041 586.036C103.703 586.313 103.448 586.633 103.275 586.995C103.105 587.342 103.039 587.699 103.078 588.067C103.118 588.434 103.273 588.783 103.543 589.113C103.807 589.435 104.119 589.655 104.478 589.774C104.831 589.885 105.198 589.894 105.578 589.803C105.967 589.705 106.33 589.518 106.669 589.24C107.015 588.956 107.266 588.64 107.422 588.292C107.586 587.937 107.648 587.575 107.609 587.207C107.563 586.832 107.408 586.483 107.144 586.161C106.873 585.831 106.562 585.611 106.209 585.5C105.856 585.389 105.493 585.384 105.119 585.483C104.747 585.568 104.388 585.752 104.041 586.036ZM106.824 580.547L108.123 579.482L117.416 590.816L116.116 591.881L106.824 580.547ZM106.366 595.861L105.32 594.939C106.005 594.378 106.752 593.758 107.562 593.081C108.365 592.395 109.175 591.675 109.992 590.922C110.811 590.154 111.574 589.377 112.281 588.591L113.161 589.462C112.456 590.302 111.706 591.111 110.909 591.888C110.113 592.651 109.322 593.368 108.535 594.041C107.749 594.713 107.026 595.32 106.366 595.861ZM120.961 568.957L122.26 567.892L131.532 579.201L130.232 580.266L120.961 568.957ZM125.588 572.632L127.629 570.959L128.512 572.035L126.47 573.709L125.588 572.632ZM119.024 572.551L120.287 571.516C121.186 572.614 121.876 573.8 122.356 575.075C122.838 576.336 123.045 577.69 122.977 579.138C122.918 580.58 122.523 582.118 121.793 583.751L120.264 583.349C120.854 581.983 121.205 580.687 121.319 579.463C121.441 578.232 121.322 577.061 120.962 575.949C120.61 574.83 120.022 573.768 119.197 572.762L119.024 572.551ZM115.04 575.818L119.693 572.003L120.555 573.055L115.903 576.869L115.04 575.818ZM129.378 571.201L139.598 562.821L140.45 563.861L130.23 572.24L129.378 571.201ZM132.382 565.779L133.668 564.724L135.454 566.902L134.167 567.957L132.382 565.779ZM128.855 567.988L136.625 561.618L137.477 562.657L129.707 569.028L128.855 567.988ZM126.572 565.204L134.281 558.884L135.122 559.911L128.701 565.176L130.669 567.577L129.382 568.632L126.572 565.204ZM135.871 568.774C137.092 567.773 138.193 567.173 139.176 566.975C140.159 566.761 140.918 566.98 141.453 567.632C141.994 568.292 142.063 569.083 141.661 570.006C141.267 570.922 140.46 571.881 139.239 572.882C138.035 573.869 136.941 574.469 135.957 574.683C134.973 574.896 134.211 574.673 133.67 574.013C133.136 573.361 133.07 572.574 133.472 571.651C133.867 570.72 134.667 569.761 135.871 568.774ZM136.693 569.776C136.148 570.222 135.716 570.646 135.396 571.046C135.076 571.446 134.877 571.809 134.799 572.135C134.723 572.446 134.78 572.717 134.969 572.948C135.159 573.179 135.42 573.296 135.753 573.298C136.088 573.286 136.483 573.162 136.938 572.927C137.387 572.683 137.883 572.338 138.428 571.892C138.988 571.432 139.428 571.009 139.747 570.624C140.067 570.224 140.262 569.864 140.331 569.545C140.394 569.218 140.33 568.938 140.141 568.707C139.952 568.476 139.697 568.368 139.377 568.382C139.051 568.387 138.66 568.508 138.205 568.743C137.758 568.972 137.254 569.316 136.693 569.776ZM137.311 556.627L138.598 555.572L139.957 557.23L142.605 555.059L141.246 553.401L142.52 552.356L146.913 557.714L141.704 561.985L137.311 556.627ZM140.789 558.245L142.138 559.89L144.786 557.72L143.437 556.074L140.789 558.245ZM143.953 554.761L146.96 552.296L147.822 553.347L144.816 555.812L143.953 554.761ZM144.341 549.808L145.64 548.743L151.007 555.288L149.708 556.353L144.341 549.808ZM144.009 561.895L151.433 555.808L154.791 559.903L147.367 565.99L144.009 561.895ZM151.013 557.87L146.126 561.877L147.799 563.918L152.687 559.911L151.013 557.87ZM151.727 544.56C152.296 544.093 152.884 543.784 153.49 543.632C154.098 543.464 154.671 543.457 155.209 543.608C155.755 543.754 156.221 544.061 156.607 544.531C156.986 544.993 157.193 545.506 157.228 546.071C157.271 546.628 157.154 547.193 156.878 547.764C156.603 548.321 156.181 548.832 155.612 549.299C155.051 549.759 154.471 550.069 153.871 550.229C153.265 550.381 152.689 550.385 152.142 550.24C151.604 550.088 151.146 549.781 150.767 549.319C150.381 548.849 150.167 548.335 150.124 547.778C150.088 547.213 150.208 546.653 150.483 546.097C150.751 545.532 151.166 545.02 151.727 544.56ZM152.599 545.624C152.277 545.888 152.033 546.178 151.865 546.495C151.705 546.805 151.633 547.12 151.646 547.44C151.662 547.744 151.781 548.033 152.004 548.305C152.221 548.569 152.48 548.742 152.783 548.825C153.087 548.893 153.406 548.88 153.742 548.784C154.085 548.682 154.418 548.498 154.74 548.235C155.07 547.964 155.314 547.674 155.474 547.364C155.642 547.047 155.718 546.736 155.703 546.431C155.689 546.112 155.574 545.82 155.357 545.556C155.134 545.284 154.87 545.114 154.566 545.046C154.264 544.963 153.941 544.972 153.597 545.075C153.262 545.17 152.929 545.353 152.599 545.624ZM156.002 550.986L157.314 549.911L161.027 554.439L159.715 555.514L156.002 550.986ZM155.724 540.476L157.01 539.421L166.282 550.73L164.996 551.785L155.724 540.476ZM153.65 554.073L152.617 553.141C153.302 552.579 154.05 551.952 154.861 551.259C155.672 550.567 156.487 549.836 157.306 549.069C158.133 548.294 158.9 547.513 159.607 546.727L160.485 547.621C159.788 548.454 159.038 549.263 158.232 550.047C157.435 550.825 156.64 551.553 155.845 552.232C155.058 552.905 154.327 553.518 153.65 554.073ZM132.819 602.312L126.929 595.128L126.82 595.218L125.905 598.524L124.706 597.062L125.671 593.594L127.224 592.321L134.371 601.039L132.819 602.312ZM140.168 596.65C139.475 597.218 138.729 597.519 137.93 597.555C137.135 597.587 136.324 597.37 135.497 596.903C134.669 596.437 133.871 595.734 133.102 594.796L133.092 594.784C132.322 593.845 131.792 592.927 131.499 592.028C131.204 591.125 131.15 590.287 131.337 589.514C131.529 588.737 131.971 588.065 132.664 587.497C133.357 586.929 134.103 586.627 134.902 586.591C135.701 586.556 136.514 586.771 137.341 587.238C138.165 587.701 138.962 588.401 139.731 589.34L139.741 589.352C140.511 590.29 141.043 591.211 141.339 592.114C141.634 593.016 141.686 593.856 141.495 594.633C141.303 595.409 140.861 596.082 140.168 596.65ZM139.133 595.387C139.503 595.083 139.711 594.691 139.755 594.211C139.798 593.73 139.687 593.188 139.421 592.584C139.156 591.973 138.741 591.324 138.177 590.635L138.167 590.623C137.602 589.934 137.048 589.402 136.504 589.026C135.961 588.643 135.451 588.428 134.975 588.381C134.495 588.329 134.07 588.456 133.699 588.759C133.329 589.063 133.121 589.455 133.078 589.936C133.034 590.409 133.145 590.951 133.411 591.562C133.677 592.166 134.092 592.812 134.657 593.501L134.666 593.513C135.231 594.201 135.785 594.737 136.328 595.12C136.872 595.496 137.382 595.711 137.858 595.766C138.337 595.817 138.762 595.691 139.133 595.387ZM148.397 589.903C147.704 590.471 146.958 590.773 146.159 590.809C145.364 590.841 144.552 590.624 143.725 590.157C142.898 589.69 142.1 588.988 141.33 588.049L141.32 588.037C140.551 587.099 140.02 586.18 139.728 585.281C139.432 584.379 139.378 583.541 139.566 582.767C139.758 581.991 140.2 581.318 140.892 580.75C141.585 580.182 142.331 579.881 143.13 579.845C143.93 579.809 144.743 580.025 145.57 580.492C146.394 580.954 147.191 581.655 147.96 582.593L147.97 582.605C148.739 583.544 149.272 584.464 149.567 585.367C149.863 586.27 149.915 587.109 149.723 587.886C149.532 588.663 149.089 589.335 148.397 589.903ZM147.361 588.641C147.732 588.337 147.939 587.945 147.983 587.464C148.027 586.984 147.916 586.442 147.65 585.838C147.385 585.227 146.97 584.577 146.405 583.888L146.395 583.876C145.831 583.188 145.276 582.655 144.732 582.28C144.189 581.896 143.68 581.681 143.203 581.634C142.723 581.583 142.298 581.709 141.928 582.013C141.557 582.317 141.35 582.709 141.306 583.189C141.263 583.663 141.374 584.205 141.639 584.816C141.905 585.419 142.32 586.065 142.885 586.754L142.895 586.766C143.46 587.455 144.014 587.991 144.557 588.374C145.101 588.75 145.61 588.965 146.086 589.019C146.566 589.071 146.991 588.944 147.361 588.641ZM151.378 579.579C150.939 579.939 150.49 580.162 150.029 580.25C149.573 580.335 149.13 580.287 148.7 580.108C148.267 579.924 147.865 579.607 147.495 579.156L147.49 579.15C147.127 578.706 146.898 578.255 146.803 577.794C146.712 577.329 146.754 576.884 146.93 576.457C147.106 576.023 147.411 575.628 147.846 575.271C148.285 574.911 148.735 574.687 149.195 574.6C149.652 574.508 150.097 574.554 150.531 574.737C150.968 574.918 151.368 575.229 151.731 575.672L151.736 575.678C152.106 576.129 152.339 576.585 152.434 577.046C152.529 577.507 152.488 577.955 152.312 578.389C152.132 578.819 151.821 579.215 151.378 579.579ZM150.67 578.715C151 578.444 151.161 578.123 151.154 577.752C151.143 577.377 150.97 576.987 150.637 576.58L150.632 576.574C150.305 576.175 149.957 575.935 149.587 575.854C149.222 575.77 148.876 575.862 148.55 576.129C148.228 576.393 148.07 576.714 148.077 577.093C148.084 577.471 148.251 577.859 148.578 578.258L148.583 578.264C148.916 578.671 149.266 578.916 149.631 579.001C149.997 579.078 150.344 578.982 150.67 578.715Z" fill="black"/>
<path d="M150.609 188.281C149.714 188.281 148.945 188.042 148.305 187.562C147.669 187.083 147.18 186.401 146.836 185.516C146.492 184.63 146.32 183.581 146.32 182.367V182.352C146.32 181.138 146.492 180.091 146.836 179.211C147.18 178.326 147.669 177.643 148.305 177.164C148.945 176.685 149.714 176.445 150.609 176.445C151.505 176.445 152.273 176.685 152.914 177.164C153.555 177.643 154.047 178.326 154.391 179.211C154.734 180.091 154.906 181.138 154.906 182.352V182.367C154.906 183.581 154.734 184.63 154.391 185.516C154.047 186.401 153.555 187.083 152.914 187.562C152.273 188.042 151.505 188.281 150.609 188.281ZM150.609 186.648C151.089 186.648 151.497 186.477 151.836 186.133C152.174 185.789 152.432 185.299 152.609 184.664C152.792 184.023 152.883 183.258 152.883 182.367V182.352C152.883 181.461 152.792 180.698 152.609 180.062C152.432 179.422 152.174 178.932 151.836 178.594C151.497 178.25 151.089 178.078 150.609 178.078C150.13 178.078 149.721 178.25 149.383 178.594C149.049 178.932 148.792 179.422 148.609 180.062C148.432 180.698 148.344 181.461 148.344 182.352V182.367C148.344 183.258 148.432 184.023 148.609 184.664C148.792 185.299 149.049 185.789 149.383 186.133C149.721 186.477 150.13 186.648 150.609 186.648ZM161.109 176.445C161.714 176.445 162.286 176.557 162.828 176.781C163.37 177 163.849 177.344 164.266 177.812C164.688 178.276 165.018 178.872 165.258 179.602C165.497 180.326 165.617 181.198 165.617 182.219V182.234C165.617 183.5 165.435 184.583 165.07 185.484C164.706 186.385 164.182 187.078 163.5 187.562C162.823 188.042 162.013 188.281 161.07 188.281C160.378 188.281 159.753 188.156 159.195 187.906C158.643 187.651 158.185 187.302 157.82 186.859C157.461 186.411 157.219 185.901 157.094 185.328L157.078 185.242H159.055L159.086 185.32C159.185 185.581 159.326 185.81 159.508 186.008C159.695 186.206 159.919 186.359 160.18 186.469C160.445 186.573 160.742 186.625 161.07 186.625C161.664 186.625 162.148 186.451 162.523 186.102C162.904 185.747 163.188 185.276 163.375 184.688C163.568 184.094 163.677 183.438 163.703 182.719C163.708 182.641 163.711 182.565 163.711 182.492C163.711 182.414 163.711 182.339 163.711 182.266L163.359 180.383C163.359 179.956 163.26 179.568 163.062 179.219C162.865 178.87 162.596 178.594 162.258 178.391C161.924 178.188 161.547 178.086 161.125 178.086C160.719 178.086 160.346 178.185 160.008 178.383C159.669 178.581 159.398 178.852 159.195 179.195C158.992 179.534 158.891 179.914 158.891 180.336V180.352C158.891 180.789 158.987 181.177 159.18 181.516C159.372 181.849 159.635 182.112 159.969 182.305C160.302 182.497 160.682 182.594 161.109 182.594C161.536 182.594 161.919 182.5 162.258 182.312C162.596 182.125 162.865 181.865 163.062 181.531C163.26 181.198 163.359 180.82 163.359 180.398V180.383H163.828V182.461H163.555C163.419 182.758 163.219 183.034 162.953 183.289C162.688 183.544 162.359 183.75 161.969 183.906C161.583 184.062 161.13 184.141 160.609 184.141C159.891 184.141 159.255 183.979 158.703 183.656C158.151 183.333 157.716 182.891 157.398 182.328C157.086 181.766 156.93 181.13 156.93 180.422V180.406C156.93 179.641 157.107 178.961 157.461 178.367C157.82 177.768 158.315 177.299 158.945 176.961C159.581 176.617 160.302 176.445 161.109 176.445ZM168.492 188.148C168.138 188.148 167.841 188.031 167.602 187.797C167.367 187.557 167.25 187.266 167.25 186.922C167.25 186.573 167.367 186.281 167.602 186.047C167.841 185.807 168.138 185.688 168.492 185.688C168.852 185.688 169.148 185.807 169.383 186.047C169.617 186.281 169.734 186.573 169.734 186.922C169.734 187.266 169.617 187.557 169.383 187.797C169.148 188.031 168.852 188.148 168.492 188.148ZM174.398 188V178.711H174.258L171.453 180.688V178.797L174.398 176.727H176.406V188H174.398ZM183.672 188.281C182.776 188.281 182.008 188.042 181.367 187.562C180.732 187.083 180.242 186.401 179.898 185.516C179.555 184.63 179.383 183.581 179.383 182.367V182.352C179.383 181.138 179.555 180.091 179.898 179.211C180.242 178.326 180.732 177.643 181.367 177.164C182.008 176.685 182.776 176.445 183.672 176.445C184.568 176.445 185.336 176.685 185.977 177.164C186.617 177.643 187.109 178.326 187.453 179.211C187.797 180.091 187.969 181.138 187.969 182.352V182.367C187.969 183.581 187.797 184.63 187.453 185.516C187.109 186.401 186.617 187.083 185.977 187.562C185.336 188.042 184.568 188.281 183.672 188.281ZM183.672 186.648C184.151 186.648 184.56 186.477 184.898 186.133C185.237 185.789 185.495 185.299 185.672 184.664C185.854 184.023 185.945 183.258 185.945 182.367V182.352C185.945 181.461 185.854 180.698 185.672 180.062C185.495 179.422 185.237 178.932 184.898 178.594C184.56 178.25 184.151 178.078 183.672 178.078C183.193 178.078 182.784 178.25 182.445 178.594C182.112 178.932 181.854 179.422 181.672 180.062C181.495 180.698 181.406 181.461 181.406 182.352V182.367C181.406 183.258 181.495 184.023 181.672 184.664C181.854 185.299 182.112 185.789 182.445 186.133C182.784 186.477 183.193 186.648 183.672 186.648ZM194.578 180.24H195.746C196.748 180.24 197.623 180.229 198.37 180.208C199.127 180.176 199.826 180.128 200.466 180.064C201.106 179.989 201.746 179.883 202.386 179.744L202.562 181.072C201.9 181.211 201.239 181.317 200.578 181.392C199.927 181.467 199.212 181.52 198.434 181.552C197.666 181.573 196.77 181.584 195.746 181.584H194.578V180.24ZM194.578 175.504H201.074V176.832H196.242V181.008H194.578V175.504ZM203.746 174.688H205.41V182.016H203.746V174.688ZM204.962 177.632H207.474V179.008H204.962V177.632ZM195.97 182.688H205.41V186.496H197.65V188.528H196.002V185.232H203.762V184.016H195.97V182.688ZM196.002 187.808H205.89V189.136H196.002V187.808ZM212.272 175.488H213.664V176.912C213.664 177.872 213.504 178.768 213.184 179.6C212.864 180.421 212.395 181.141 211.776 181.76C211.168 182.368 210.422 182.837 209.536 183.168L208.656 181.808C209.446 181.541 210.107 181.163 210.64 180.672C211.174 180.171 211.579 179.595 211.856 178.944C212.134 178.293 212.272 177.616 212.272 176.912V175.488ZM212.608 175.488H213.968V176.832C213.968 177.504 214.096 178.144 214.352 178.752C214.619 179.36 215.008 179.893 215.52 180.352C216.032 180.811 216.656 181.163 217.392 181.408L216.512 182.72C215.68 182.421 214.971 181.984 214.384 181.408C213.798 180.832 213.355 180.155 213.056 179.376C212.758 178.597 212.608 177.749 212.608 176.832V175.488ZM219.152 174.704H220.832V183.312H219.152V174.704ZM215.968 183.712C217.494 183.712 218.694 183.957 219.568 184.448C220.454 184.939 220.896 185.627 220.896 186.512C220.896 187.397 220.454 188.08 219.568 188.56C218.694 189.051 217.494 189.296 215.968 189.296C214.443 189.296 213.238 189.051 212.352 188.56C211.467 188.08 211.024 187.397 211.024 186.512C211.024 185.627 211.467 184.939 212.352 184.448C213.238 183.957 214.443 183.712 215.968 183.712ZM215.968 185.024C215.275 185.024 214.683 185.083 214.192 185.2C213.712 185.307 213.344 185.472 213.088 185.696C212.832 185.92 212.704 186.192 212.704 186.512C212.704 186.821 212.832 187.088 213.088 187.312C213.344 187.536 213.712 187.707 214.192 187.824C214.683 187.941 215.275 188 215.968 188C216.662 188 217.248 187.941 217.728 187.824C218.208 187.707 218.576 187.536 218.832 187.312C219.099 187.088 219.232 186.821 219.232 186.512C219.232 186.192 219.099 185.92 218.832 185.696C218.576 185.472 218.208 185.307 217.728 185.2C217.248 185.083 216.662 185.024 215.968 185.024ZM216.208 177.6H219.456V178.976H216.208V177.6Z" fill="black"/>
<path d="M45.2188 401V391.711H45.0781L42.2734 393.688V391.797L45.2188 389.727H47.2266V401H45.2188ZM54.4922 401.281C53.5964 401.281 52.8281 401.042 52.1875 400.562C51.5521 400.083 51.0625 399.401 50.7188 398.516C50.375 397.63 50.2031 396.581 50.2031 395.367V395.352C50.2031 394.138 50.375 393.091 50.7188 392.211C51.0625 391.326 51.5521 390.643 52.1875 390.164C52.8281 389.685 53.5964 389.445 54.4922 389.445C55.388 389.445 56.1562 389.685 56.7969 390.164C57.4375 390.643 57.9297 391.326 58.2734 392.211C58.6172 393.091 58.7891 394.138 58.7891 395.352V395.367C58.7891 396.581 58.6172 397.63 58.2734 398.516C57.9297 399.401 57.4375 400.083 56.7969 400.562C56.1562 401.042 55.388 401.281 54.4922 401.281ZM54.4922 399.648C54.9714 399.648 55.3802 399.477 55.7188 399.133C56.0573 398.789 56.3151 398.299 56.4922 397.664C56.6745 397.023 56.7656 396.258 56.7656 395.367V395.352C56.7656 394.461 56.6745 393.698 56.4922 393.062C56.3151 392.422 56.0573 391.932 55.7188 391.594C55.3802 391.25 54.9714 391.078 54.4922 391.078C54.013 391.078 53.6042 391.25 53.2656 391.594C52.9323 391.932 52.6745 392.422 52.4922 393.062C52.3151 393.698 52.2266 394.461 52.2266 395.352V395.367C52.2266 396.258 52.3151 397.023 52.4922 397.664C52.6745 398.299 52.9323 398.789 53.2656 399.133C53.6042 399.477 54.013 399.648 54.4922 399.648ZM61.7031 401.148C61.349 401.148 61.0521 401.031 60.8125 400.797C60.5781 400.557 60.4609 400.266 60.4609 399.922C60.4609 399.573 60.5781 399.281 60.8125 399.047C61.0521 398.807 61.349 398.688 61.7031 398.688C62.0625 398.688 62.3594 398.807 62.5938 399.047C62.8281 399.281 62.9453 399.573 62.9453 399.922C62.9453 400.266 62.8281 400.557 62.5938 400.797C62.3594 401.031 62.0625 401.148 61.7031 401.148ZM67.6094 401V391.711H67.4688L64.6641 393.688V391.797L67.6094 389.727H69.6172V401H67.6094ZM76.8281 401.227C76.0052 401.227 75.2839 401.089 74.6641 400.812C74.0495 400.536 73.5625 400.154 73.2031 399.664C72.849 399.169 72.6458 398.599 72.5938 397.953L72.5859 397.859H74.5078L74.5156 397.945C74.5521 398.263 74.6693 398.547 74.8672 398.797C75.0651 399.042 75.3307 399.234 75.6641 399.375C75.9974 399.51 76.3854 399.578 76.8281 399.578C77.2604 399.578 77.638 399.503 77.9609 399.352C78.2891 399.201 78.5443 398.992 78.7266 398.727C78.9089 398.461 79 398.154 79 397.805V397.789C79 397.195 78.7943 396.74 78.3828 396.422C77.9714 396.104 77.4036 395.945 76.6797 395.945H75.3438V394.445H76.6406C77.0521 394.445 77.4141 394.372 77.7266 394.227C78.0391 394.081 78.2812 393.883 78.4531 393.633C78.625 393.378 78.7109 393.086 78.7109 392.758V392.742C78.7109 392.393 78.6354 392.096 78.4844 391.852C78.3385 391.607 78.1224 391.419 77.8359 391.289C77.5547 391.159 77.2135 391.094 76.8125 391.094C76.4167 391.094 76.0651 391.161 75.7578 391.297C75.4557 391.432 75.2135 391.625 75.0312 391.875C74.849 392.12 74.7396 392.409 74.7031 392.742L74.6953 392.82H72.8281L72.8359 392.727C72.8932 392.076 73.0911 391.51 73.4297 391.031C73.7734 390.547 74.2318 390.172 74.8047 389.906C75.3828 389.635 76.0521 389.5 76.8125 389.5C77.5885 389.5 78.263 389.628 78.8359 389.883C79.4089 390.133 79.8516 390.479 80.1641 390.922C80.4818 391.365 80.6406 391.883 80.6406 392.477V392.492C80.6406 392.956 80.5365 393.367 80.3281 393.727C80.125 394.081 79.8438 394.375 79.4844 394.609C79.1302 394.844 78.7266 395.008 78.2734 395.102V395.141C79.1068 395.219 79.776 395.495 80.2812 395.969C80.7865 396.438 81.0391 397.062 81.0391 397.844V397.859C81.0391 398.516 80.862 399.099 80.5078 399.609C80.1536 400.115 79.6589 400.51 79.0234 400.797C78.3932 401.083 77.6615 401.227 76.8281 401.227ZM87.6011 393.24H88.7691C89.7717 393.24 90.6464 393.229 91.3931 393.208C92.1504 393.176 92.8491 393.128 93.4891 393.064C94.1291 392.989 94.7691 392.883 95.4091 392.744L95.5851 394.072C94.9237 394.211 94.2624 394.317 93.6011 394.392C92.9504 394.467 92.2357 394.52 91.4571 394.552C90.6891 394.573 89.7931 394.584 88.7691 394.584H87.6011V393.24ZM87.6011 388.504H94.0971V389.832H89.2651V394.008H87.6011V388.504ZM96.7691 387.688H98.4331V395.016H96.7691V387.688ZM97.9851 390.632H100.497V392.008H97.9851V390.632ZM88.9931 395.688H98.4331V399.496H90.6731V401.528H89.0251V398.232H96.7851V397.016H88.9931V395.688ZM89.0251 400.808H98.9131V402.136H89.0251V400.808ZM105.296 388.488H106.688V389.912C106.688 390.872 106.528 391.768 106.208 392.6C105.888 393.421 105.418 394.141 104.8 394.76C104.192 395.368 103.445 395.837 102.56 396.168L101.68 394.808C102.469 394.541 103.13 394.163 103.664 393.672C104.197 393.171 104.602 392.595 104.88 391.944C105.157 391.293 105.296 390.616 105.296 389.912V388.488ZM105.632 388.488H106.992V389.832C106.992 390.504 107.12 391.144 107.376 391.752C107.642 392.36 108.032 392.893 108.544 393.352C109.056 393.811 109.68 394.163 110.416 394.408L109.536 395.72C108.704 395.421 107.994 394.984 107.408 394.408C106.821 393.832 106.378 393.155 106.08 392.376C105.781 391.597 105.632 390.749 105.632 389.832V388.488ZM112.176 387.704H113.856V396.312H112.176V387.704ZM108.992 396.712C110.517 396.712 111.717 396.957 112.592 397.448C113.477 397.939 113.92 398.627 113.92 399.512C113.92 400.397 113.477 401.08 112.592 401.56C111.717 402.051 110.517 402.296 108.992 402.296C107.466 402.296 106.261 402.051 105.376 401.56C104.49 401.08 104.048 400.397 104.048 399.512C104.048 398.627 104.49 397.939 105.376 397.448C106.261 396.957 107.466 396.712 108.992 396.712ZM108.992 398.024C108.298 398.024 107.706 398.083 107.216 398.2C106.736 398.307 106.368 398.472 106.112 398.696C105.856 398.92 105.728 399.192 105.728 399.512C105.728 399.821 105.856 400.088 106.112 400.312C106.368 400.536 106.736 400.707 107.216 400.824C107.706 400.941 108.298 401 108.992 401C109.685 401 110.272 400.941 110.752 400.824C111.232 400.707 111.6 400.536 111.856 400.312C112.122 400.088 112.256 399.821 112.256 399.512C112.256 399.192 112.122 398.92 111.856 398.696C111.6 398.472 111.232 398.307 110.752 398.2C110.272 398.083 109.685 398.024 108.992 398.024ZM109.232 390.6H112.48V391.976H109.232V390.6Z" fill="black"/>
<path d="M211.421 688.782L215.673 679.873L220.236 682.05L215.985 690.96L211.421 688.782ZM216.141 681.94L213.308 687.874L215.489 688.915L218.321 682.98L216.141 681.94ZM216.741 693.164L222.433 681.237L223.646 681.816L217.954 693.743L216.741 693.164ZM217.46 687.125L218.176 685.624L220.328 686.65L219.611 688.152L217.46 687.125ZM219.75 692.987L224.119 683.832L228.365 685.858L227.641 687.375L224.609 685.927L220.963 693.566L219.75 692.987ZM225.16 677.008L225.876 675.507L229.559 677.264L228.842 678.766L225.16 677.008ZM227.131 672.914L227.848 671.413L231.516 673.163L230.799 674.665L227.131 672.914ZM226.935 681.721L232.641 669.764L233.868 670.35L228.163 682.306L226.935 681.721ZM218.105 676.301L222.839 666.381L224.066 666.966L219.332 676.887L218.105 676.301ZM223.388 678.751L228.081 668.918L229.294 669.497L224.601 679.33L223.388 678.751ZM220.046 674.834L220.762 673.332L225.21 675.455L224.493 676.956L220.046 674.834ZM222.202 670.314L222.919 668.812L227.367 670.935L226.65 672.437L222.202 670.314ZM240.247 704.314L231.863 700.314L231.803 700.44L232.378 703.823L230.672 703.009L230.072 699.459L230.937 697.647L241.111 702.502L240.247 704.314ZM244.421 696.092C244.067 696.834 243.632 697.426 243.116 697.867C242.602 698.302 242.047 698.577 241.45 698.69C240.851 698.797 240.249 698.735 239.643 698.504L239.555 698.47L240.383 696.736L240.464 696.766C240.766 696.87 241.073 696.886 241.384 696.815C241.69 696.742 241.978 696.585 242.249 696.345C242.515 696.102 242.743 695.781 242.934 695.382C243.12 694.992 243.214 694.618 243.217 694.262C243.222 693.901 243.144 693.581 242.983 693.302C242.821 693.023 242.583 692.808 242.268 692.658L242.254 692.651C241.719 692.395 241.219 692.385 240.755 692.619C240.291 692.854 239.903 693.298 239.591 693.951L239.016 695.157L237.662 694.511L238.22 693.34C238.398 692.969 238.488 692.611 238.491 692.266C238.494 691.921 238.419 691.618 238.268 691.355C238.112 691.09 237.885 690.887 237.589 690.745L237.575 690.738C237.26 690.588 236.96 690.528 236.674 690.559C236.39 690.586 236.128 690.7 235.887 690.902C235.648 691.1 235.442 691.38 235.27 691.742C235.099 692.099 235.009 692.446 234.999 692.781C234.991 693.112 235.061 693.414 235.208 693.686C235.35 693.956 235.564 694.179 235.849 694.356L235.916 694.396L235.112 696.081L235.031 696.034C234.468 695.702 234.043 695.28 233.756 694.768C233.467 694.249 233.326 693.674 233.333 693.042C233.338 692.404 233.504 691.742 233.831 691.055C234.166 690.355 234.571 689.801 235.048 689.394C235.521 688.985 236.024 688.734 236.558 688.643C237.094 688.547 237.631 688.627 238.166 688.883L238.181 688.889C238.599 689.089 238.925 689.36 239.16 689.703C239.392 690.039 239.537 690.419 239.593 690.845C239.652 691.265 239.627 691.7 239.516 692.149L239.551 692.166C239.981 691.448 240.518 690.963 241.163 690.711C241.804 690.457 242.477 690.498 243.182 690.834L243.196 690.841C243.788 691.124 244.238 691.535 244.547 692.074C244.85 692.612 244.994 693.229 244.979 693.925C244.966 694.618 244.78 695.34 244.421 696.092ZM248.969 686.688C248.64 687.379 248.22 687.926 247.71 688.329C247.2 688.733 246.65 688.984 246.061 689.083C245.466 689.18 244.88 689.12 244.303 688.902L244.208 688.866L245.005 687.195L245.062 687.204C245.361 687.289 245.665 687.299 245.974 687.233C246.283 687.166 246.571 687.027 246.84 686.815C247.104 686.6 247.319 686.319 247.485 685.971C247.673 685.577 247.752 685.187 247.722 684.803C247.694 684.415 247.567 684.063 247.343 683.748C247.113 683.431 246.801 683.178 246.406 682.99L246.392 682.983C245.997 682.794 245.608 682.715 245.224 682.746C244.838 682.769 244.488 682.891 244.175 683.111C243.86 683.324 243.61 683.626 243.423 684.016C243.287 684.303 243.202 684.588 243.17 684.873C243.14 685.153 243.165 685.428 243.245 685.696C243.28 685.829 243.327 685.958 243.388 686.085C243.444 686.21 243.514 686.33 243.597 686.445L242.854 688.003L237.131 684.666L240.045 678.56L241.533 679.27L239.295 683.959L242.26 685.729L242.32 685.602C242.157 685.351 242.047 685.079 241.991 684.787C241.93 684.492 241.923 684.186 241.97 683.868C242.013 683.548 242.11 683.23 242.26 682.916C242.565 682.276 242.98 681.782 243.505 681.432C244.027 681.075 244.61 680.877 245.252 680.837C245.889 680.795 246.533 680.929 247.181 681.239L247.195 681.245C247.9 681.582 248.445 682.038 248.828 682.613C249.209 683.181 249.415 683.819 249.447 684.527C249.478 685.235 249.319 685.955 248.969 686.688ZM247.167 676.315C246.923 676.827 246.611 677.221 246.232 677.496C245.855 677.766 245.433 677.911 244.968 677.932C244.498 677.95 243.999 677.833 243.473 677.582L243.466 677.578C242.949 677.332 242.549 677.02 242.267 676.643C241.988 676.261 241.837 675.84 241.814 675.379C241.789 674.911 241.898 674.424 242.14 673.916C242.385 673.404 242.697 673.01 243.076 672.735C243.451 672.458 243.873 672.31 244.343 672.293C244.816 672.27 245.311 672.382 245.828 672.629L245.835 672.632C246.361 672.883 246.765 673.197 247.047 673.574C247.329 673.951 247.482 674.373 247.507 674.841C247.527 675.307 247.414 675.798 247.167 676.315ZM246.159 675.834C246.343 675.448 246.353 675.09 246.188 674.757C246.019 674.422 245.697 674.142 245.222 673.915L245.215 673.912C244.75 673.69 244.333 673.621 243.964 673.704C243.597 673.783 243.323 674.013 243.141 674.394C242.962 674.77 242.956 675.128 243.123 675.467C243.29 675.806 243.606 676.087 244.071 676.309L244.078 676.313C244.553 676.539 244.974 676.613 245.34 676.534C245.705 676.448 245.978 676.215 246.159 675.834Z" fill="black"/>
<path d="M127 394L379 396" stroke="black" stroke-width="0.907625"/>
<path d="M225.679 181.871L379 398" stroke="black" stroke-width="0.907625"/>
<path d="M372.968 160.271C372.104 160.271 371.364 160.04 370.746 159.578C370.133 159.116 369.661 158.458 369.329 157.604C368.998 156.75 368.832 155.738 368.832 154.568V154.553C368.832 153.383 368.998 152.373 369.329 151.524C369.661 150.67 370.133 150.012 370.746 149.55C371.364 149.088 372.104 148.857 372.968 148.857C373.832 148.857 374.573 149.088 375.191 149.55C375.809 150.012 376.283 150.67 376.615 151.524C376.946 152.373 377.112 153.383 377.112 154.553V154.568C377.112 155.738 376.946 156.75 376.615 157.604C376.283 158.458 375.809 159.116 375.191 159.578C374.573 160.04 373.832 160.271 372.968 160.271ZM372.968 158.697C373.43 158.697 373.825 158.531 374.151 158.199C374.478 157.868 374.726 157.396 374.897 156.783C375.073 156.165 375.161 155.427 375.161 154.568V154.553C375.161 153.694 375.073 152.958 374.897 152.345C374.726 151.728 374.478 151.256 374.151 150.929C373.825 150.598 373.43 150.432 372.968 150.432C372.506 150.432 372.112 150.598 371.785 150.929C371.464 151.256 371.215 151.728 371.04 152.345C370.869 152.958 370.783 153.694 370.783 154.553V154.568C370.783 155.427 370.869 156.165 371.04 156.783C371.215 157.396 371.464 157.868 371.785 158.199C372.112 158.531 372.506 158.697 372.968 158.697Z" fill="black"/>
<circle cx="225" cy="181" r="4" fill="#FF0000"/>
<circle cx="123" cy="394" r="4" fill="#FF0000"/>
<path d="M237.926 210V207.701H232.066V205.949C232.381 205.412 232.697 204.873 233.012 204.331C233.333 203.788 233.657 203.249 233.983 202.712C234.315 202.17 234.645 201.636 234.971 201.11C235.303 200.579 235.632 200.056 235.959 199.541C236.291 199.021 236.623 198.514 236.955 198.022H239.968V205.933H241.587V207.701H239.968V210H237.926ZM234.058 205.982H237.959V199.732H237.835C237.591 200.108 237.34 200.496 237.08 200.894C236.825 201.292 236.568 201.699 236.308 202.114C236.048 202.529 235.79 202.947 235.536 203.368C235.281 203.783 235.029 204.201 234.78 204.621C234.531 205.036 234.291 205.448 234.058 205.858V205.982ZM248.194 210.299C247.243 210.299 246.426 210.044 245.746 209.535C245.07 209.026 244.55 208.301 244.185 207.36C243.82 206.42 243.637 205.305 243.637 204.015V203.999C243.637 202.709 243.82 201.597 244.185 200.662C244.55 199.721 245.07 198.996 245.746 198.487C246.426 197.978 247.243 197.723 248.194 197.723C249.146 197.723 249.962 197.978 250.643 198.487C251.324 198.996 251.847 199.721 252.212 200.662C252.577 201.597 252.76 202.709 252.76 203.999V204.015C252.76 205.305 252.577 206.42 252.212 207.36C251.847 208.301 251.324 209.026 250.643 209.535C249.962 210.044 249.146 210.299 248.194 210.299ZM248.194 208.564C248.703 208.564 249.138 208.381 249.498 208.016C249.857 207.651 250.131 207.131 250.319 206.456C250.513 205.775 250.61 204.961 250.61 204.015V203.999C250.61 203.052 250.513 202.242 250.319 201.566C250.131 200.886 249.857 200.366 249.498 200.006C249.138 199.641 248.703 199.458 248.194 199.458C247.685 199.458 247.251 199.641 246.891 200.006C246.537 200.366 246.263 200.886 246.069 201.566C245.881 202.242 245.787 203.052 245.787 203.999V204.015C245.787 204.961 245.881 205.775 246.069 206.456C246.263 207.131 246.537 207.651 246.891 208.016C247.251 208.381 247.685 208.564 248.194 208.564Z" fill="black"/>
<path d="M146.673 388.723C147.315 388.723 147.924 388.842 148.499 389.08C149.075 389.312 149.584 389.678 150.026 390.176C150.475 390.668 150.826 391.302 151.081 392.077C151.335 392.846 151.462 393.773 151.462 394.857V394.874C151.462 396.219 151.269 397.37 150.881 398.327C150.494 399.285 149.938 400.021 149.213 400.535C148.493 401.044 147.633 401.299 146.631 401.299C145.895 401.299 145.231 401.166 144.639 400.9C144.053 400.629 143.566 400.258 143.178 399.788C142.796 399.312 142.539 398.77 142.406 398.161L142.39 398.07H144.49L144.523 398.153C144.628 398.43 144.778 398.673 144.971 398.883C145.17 399.094 145.408 399.257 145.685 399.373C145.967 399.484 146.283 399.539 146.631 399.539C147.262 399.539 147.777 399.354 148.175 398.983C148.579 398.607 148.881 398.106 149.08 397.48C149.285 396.85 149.401 396.152 149.429 395.389C149.434 395.306 149.437 395.225 149.437 395.148C149.437 395.065 149.437 394.985 149.437 394.907L149.063 392.907C149.063 392.453 148.958 392.041 148.748 391.67C148.538 391.299 148.253 391.006 147.893 390.79C147.539 390.574 147.138 390.466 146.689 390.466C146.258 390.466 145.862 390.571 145.502 390.782C145.143 390.992 144.855 391.28 144.639 391.645C144.423 392.005 144.315 392.409 144.315 392.857V392.874C144.315 393.338 144.418 393.751 144.623 394.11C144.827 394.465 145.107 394.744 145.461 394.949C145.815 395.153 146.219 395.256 146.673 395.256C147.127 395.256 147.533 395.156 147.893 394.957C148.253 394.758 148.538 394.481 148.748 394.127C148.958 393.773 149.063 393.372 149.063 392.923V392.907H149.562V395.115H149.271C149.127 395.43 148.914 395.723 148.632 395.995C148.35 396.266 148.001 396.484 147.586 396.65C147.176 396.816 146.695 396.899 146.142 396.899C145.378 396.899 144.703 396.728 144.116 396.385C143.53 396.042 143.068 395.571 142.73 394.974C142.398 394.376 142.232 393.701 142.232 392.948V392.932C142.232 392.118 142.42 391.396 142.796 390.765C143.178 390.129 143.704 389.631 144.374 389.271C145.049 388.906 145.815 388.723 146.673 388.723ZM158.161 401.299C157.209 401.299 156.393 401.044 155.712 400.535C155.037 400.026 154.517 399.301 154.152 398.36C153.787 397.42 153.604 396.305 153.604 395.015V394.999C153.604 393.709 153.787 392.597 154.152 391.662C154.517 390.721 155.037 389.996 155.712 389.487C156.393 388.978 157.209 388.723 158.161 388.723C159.113 388.723 159.929 388.978 160.61 389.487C161.291 389.996 161.813 390.721 162.179 391.662C162.544 392.597 162.727 393.709 162.727 394.999V395.015C162.727 396.305 162.544 397.42 162.179 398.36C161.813 399.301 161.291 400.026 160.61 400.535C159.929 401.044 159.113 401.299 158.161 401.299ZM158.161 399.564C158.67 399.564 159.105 399.381 159.464 399.016C159.824 398.651 160.098 398.131 160.286 397.456C160.48 396.775 160.577 395.961 160.577 395.015V394.999C160.577 394.052 160.48 393.242 160.286 392.566C160.098 391.886 159.824 391.366 159.464 391.006C159.105 390.641 158.67 390.458 158.161 390.458C157.652 390.458 157.218 390.641 156.858 391.006C156.504 391.366 156.23 391.886 156.036 392.566C155.848 393.242 155.754 394.052 155.754 394.999V395.015C155.754 395.961 155.848 396.775 156.036 397.456C156.23 398.131 156.504 398.651 156.858 399.016C157.218 399.381 157.652 399.564 158.161 399.564Z" fill="black"/>
<g filter="url(#filter1_d_343_1559)">
<path d="M393 135C324.674 135 259.147 162.405 210.833 211.187C162.519 259.969 135.775 327.696 135 395.5C129.775 488.196 188 562 188 562L262.884 502.405L393 395.12L393 135Z" fill="#CCCFEF"/>
</g>
<path d="M396 394.5L112 627.5" stroke="#FF0000" stroke-width="3.6305"/>
<path d="M395 393L239 726.5" stroke="black" stroke-width="3.6305"/>
<g filter="url(#filter2_d_343_1559)">
<rect x="143" y="381" width="43.7273" height="26" rx="13" fill="#B0D1FF"/>
<path d="M156.625 388.167C157.192 388.167 157.729 388.272 158.237 388.482C158.745 388.688 159.194 389.01 159.584 389.449C159.98 389.884 160.29 390.443 160.515 391.126C160.739 391.805 160.852 392.623 160.852 393.58V393.595C160.852 394.781 160.681 395.797 160.339 396.642C159.997 397.486 159.506 398.136 158.867 398.59C158.232 399.039 157.473 399.264 156.589 399.264C155.939 399.264 155.354 399.146 154.831 398.912C154.313 398.673 153.884 398.346 153.542 397.931C153.205 397.511 152.978 397.032 152.861 396.495L152.846 396.415H154.699L154.729 396.488C154.821 396.732 154.953 396.947 155.124 397.132C155.3 397.318 155.51 397.462 155.754 397.564C156.003 397.662 156.281 397.711 156.589 397.711C157.146 397.711 157.6 397.547 157.951 397.22C158.308 396.888 158.574 396.446 158.75 395.895C158.93 395.338 159.033 394.723 159.057 394.049C159.062 393.976 159.064 393.905 159.064 393.836C159.064 393.763 159.064 393.692 159.064 393.624L158.735 391.859C158.735 391.458 158.642 391.095 158.457 390.768C158.271 390.44 158.02 390.182 157.702 389.991C157.39 389.801 157.036 389.706 156.64 389.706C156.259 389.706 155.91 389.798 155.593 389.984C155.275 390.169 155.021 390.423 154.831 390.746C154.641 391.063 154.545 391.419 154.545 391.815V391.83C154.545 392.24 154.636 392.604 154.816 392.921C154.997 393.233 155.244 393.48 155.556 393.661C155.869 393.841 156.225 393.932 156.625 393.932C157.026 393.932 157.385 393.844 157.702 393.668C158.02 393.492 158.271 393.248 158.457 392.936C158.642 392.623 158.735 392.269 158.735 391.874V391.859H159.174V393.807H158.918C158.791 394.085 158.603 394.344 158.354 394.583C158.105 394.823 157.797 395.016 157.431 395.162C157.07 395.309 156.645 395.382 156.157 395.382C155.483 395.382 154.887 395.23 154.37 394.928C153.852 394.625 153.444 394.21 153.146 393.683C152.854 393.155 152.707 392.56 152.707 391.896V391.881C152.707 391.163 152.873 390.526 153.205 389.969C153.542 389.408 154.006 388.968 154.597 388.651C155.192 388.329 155.869 388.167 156.625 388.167ZM166.762 399.264C165.922 399.264 165.202 399.039 164.602 398.59C164.006 398.141 163.547 397.501 163.225 396.671C162.902 395.841 162.741 394.857 162.741 393.719V393.705C162.741 392.567 162.902 391.585 163.225 390.76C163.547 389.93 164.006 389.291 164.602 388.841C165.202 388.392 165.922 388.167 166.762 388.167C167.602 388.167 168.322 388.392 168.923 388.841C169.523 389.291 169.985 389.93 170.307 390.76C170.629 391.585 170.791 392.567 170.791 393.705V393.719C170.791 394.857 170.629 395.841 170.307 396.671C169.985 397.501 169.523 398.141 168.923 398.59C168.322 399.039 167.602 399.264 166.762 399.264ZM166.762 397.733C167.211 397.733 167.595 397.572 167.912 397.25C168.229 396.927 168.471 396.468 168.637 395.873C168.808 395.272 168.894 394.554 168.894 393.719V393.705C168.894 392.87 168.808 392.154 168.637 391.559C168.471 390.958 168.229 390.499 167.912 390.182C167.595 389.859 167.211 389.698 166.762 389.698C166.313 389.698 165.93 389.859 165.612 390.182C165.3 390.499 165.058 390.958 164.887 391.559C164.721 392.154 164.638 392.87 164.638 393.705V393.719C164.638 394.554 164.721 395.272 164.887 395.873C165.058 396.468 165.3 396.927 165.612 397.25C165.93 397.572 166.313 397.733 166.762 397.733ZM175.061 393.551C174.528 393.551 174.069 393.446 173.684 393.236C173.303 393.026 173.01 392.728 172.805 392.342C172.6 391.952 172.497 391.483 172.497 390.936V390.929C172.497 390.392 172.6 389.928 172.805 389.537C173.015 389.146 173.31 388.849 173.691 388.644C174.077 388.434 174.533 388.329 175.061 388.329C175.593 388.329 176.052 388.434 176.438 388.644C176.823 388.849 177.119 389.146 177.324 389.537C177.534 389.928 177.639 390.392 177.639 390.929V390.936C177.639 391.483 177.536 391.952 177.331 392.342C177.126 392.733 176.831 393.033 176.445 393.243C176.059 393.448 175.598 393.551 175.061 393.551ZM175.061 392.503C175.461 392.503 175.769 392.367 175.983 392.093C176.198 391.815 176.306 391.429 176.306 390.936V390.929C176.306 390.445 176.196 390.064 175.976 389.786C175.761 389.508 175.456 389.369 175.061 389.369C174.67 389.369 174.365 389.508 174.145 389.786C173.925 390.064 173.815 390.445 173.815 390.929V390.936C173.815 391.429 173.923 391.815 174.138 392.093C174.357 392.367 174.665 392.503 175.061 392.503Z" fill="black"/>
</g>
<g filter="url(#filter3_d_343_1559)">
<rect x="232" y="193" width="43.7273" height="26" rx="13" fill="#B0D1FF"/>
<path d="M246.885 211V208.971H241.714V207.426C241.993 206.952 242.271 206.476 242.549 205.998C242.833 205.519 243.118 205.043 243.406 204.569C243.699 204.091 243.99 203.62 244.278 203.156C244.571 202.687 244.861 202.226 245.149 201.771C245.442 201.312 245.735 200.866 246.028 200.431H248.687V207.411H250.115V208.971H248.687V211H246.885ZM243.472 207.455H246.915V201.94H246.805C246.59 202.272 246.368 202.614 246.138 202.965C245.914 203.317 245.687 203.676 245.457 204.042C245.228 204.408 245 204.777 244.776 205.148C244.551 205.514 244.329 205.883 244.109 206.254C243.89 206.62 243.677 206.984 243.472 207.345V207.455ZM255.887 211.264C255.169 211.264 254.537 211.129 253.99 210.861C253.443 210.592 253.008 210.229 252.686 209.77C252.364 209.306 252.178 208.786 252.129 208.209L252.122 208.114H253.858L253.873 208.166C253.921 208.454 254.036 208.715 254.217 208.949C254.397 209.184 254.632 209.372 254.92 209.513C255.208 209.65 255.533 209.718 255.894 209.718C256.304 209.718 256.666 209.628 256.978 209.447C257.295 209.267 257.542 209.018 257.718 208.7C257.894 208.378 257.981 208.012 257.981 207.602V207.587C257.981 207.177 257.891 206.815 257.71 206.503C257.535 206.186 257.291 205.939 256.978 205.763C256.67 205.583 256.314 205.492 255.909 205.492C255.611 205.492 255.335 205.536 255.081 205.624C254.832 205.712 254.61 205.844 254.415 206.02C254.317 206.103 254.227 206.195 254.144 206.298C254.061 206.396 253.987 206.503 253.924 206.62H252.305L252.818 200.431H259.161V201.977H254.29L253.99 205.199H254.122C254.268 204.96 254.454 204.757 254.678 204.591C254.903 204.42 255.159 204.291 255.447 204.203C255.735 204.11 256.043 204.064 256.37 204.064C257.034 204.064 257.62 204.215 258.128 204.518C258.641 204.816 259.043 205.229 259.336 205.756C259.629 206.278 259.776 206.876 259.776 207.55V207.565C259.776 208.297 259.61 208.942 259.278 209.499C258.951 210.05 258.494 210.482 257.908 210.795C257.322 211.107 256.648 211.264 255.887 211.264ZM263.936 205.551C263.404 205.551 262.945 205.446 262.559 205.236C262.178 205.026 261.885 204.728 261.68 204.342C261.475 203.952 261.373 203.483 261.373 202.936V202.929C261.373 202.392 261.475 201.928 261.68 201.537C261.89 201.146 262.186 200.849 262.566 200.644C262.952 200.434 263.409 200.329 263.936 200.329C264.468 200.329 264.927 200.434 265.313 200.644C265.699 200.849 265.994 201.146 266.199 201.537C266.409 201.928 266.514 202.392 266.514 202.929V202.936C266.514 203.483 266.412 203.952 266.207 204.342C266.001 204.733 265.706 205.033 265.32 205.243C264.935 205.448 264.473 205.551 263.936 205.551ZM263.936 204.503C264.336 204.503 264.644 204.367 264.859 204.093C265.074 203.815 265.181 203.429 265.181 202.936V202.929C265.181 202.445 265.071 202.064 264.852 201.786C264.637 201.508 264.332 201.369 263.936 201.369C263.545 201.369 263.24 201.508 263.021 201.786C262.801 202.064 262.691 202.445 262.691 202.929V202.936C262.691 203.429 262.798 203.815 263.013 204.093C263.233 204.367 263.541 204.503 263.936 204.503Z" fill="black"/>
</g>
<circle cx="393" cy="401" r="23" fill="#546F95"/>
</g>
<defs>
<filter id="filter0_d_343_1559" x="131" y="135" width="266" height="539" filterUnits="userSpaceOnUse" color-interpolation-filters="sRGB">
<feFlood flood-opacity="0" result="BackgroundImageFix"/>
<feColorMatrix in="SourceAlpha" type="matrix" values="0 0 0 0 0 0 0 0 0 0 0 0 0 0 0 0 0 0 127 0" result="hardAlpha"/>
<feOffset dy="4"/>
<feGaussianBlur stdDeviation="2"/>
<feComposite in2="hardAlpha" operator="out"/>
<feColorMatrix type="matrix" values="0 0 0 0 0 0 0 0 0 0 0 0 0 0 0 0 0 0 0.25 0"/>
<feBlend mode="normal" in2="BackgroundImageFix" result="effect1_dropShadow_343_1559"/>
<feBlend mode="normal" in="SourceGraphic" in2="effect1_dropShadow_343_1559" result="shape"/>
</filter>
<filter id="filter1_d_343_1559" x="130.668" y="135" width="266.332" height="435" filterUnits="userSpaceOnUse" color-interpolation-filters="sRGB">
<feFlood flood-opacity="0" result="BackgroundImageFix"/>
<feColorMatrix in="SourceAlpha" type="matrix" values="0 0 0 0 0 0 0 0 0 0 0 0 0 0 0 0 0 0 127 0" result="hardAlpha"/>
<feOffset dy="4"/>
<feGaussianBlur stdDeviation="2"/>
<feComposite in2="hardAlpha" operator="out"/>
<feColorMatrix type="matrix" values="0 0 0 0 0 0 0 0 0 0 0 0 0 0 0 0 0 0 0.25 0"/>
<feBlend mode="normal" in2="BackgroundImageFix" result="effect1_dropShadow_343_1559"/>
<feBlend mode="normal" in="SourceGraphic" in2="effect1_dropShadow_343_1559" result="shape"/>
</filter>
<filter id="filter2_d_343_1559" x="138.273" y="381" width="53.1818" height="35.4545" filterUnits="userSpaceOnUse" color-interpolation-filters="sRGB">
<feFlood flood-opacity="0" result="BackgroundImageFix"/>
<feColorMatrix in="SourceAlpha" type="matrix" values="0 0 0 0 0 0 0 0 0 0 0 0 0 0 0 0 0 0 127 0" result="hardAlpha"/>
<feOffset dy="4.72727"/>
<feGaussianBlur stdDeviation="2.36364"/>
<feComposite in2="hardAlpha" operator="out"/>
<feColorMatrix type="matrix" values="0 0 0 0 0 0 0 0 0 0 0 0 0 0 0 0 0 0 0.25 0"/>
<feBlend mode="normal" in2="BackgroundImageFix" result="effect1_dropShadow_343_1559"/>
<feBlend mode="normal" in="SourceGraphic" in2="effect1_dropShadow_343_1559" result="shape"/>
</filter>
<filter id="filter3_d_343_1559" x="227.273" y="193" width="53.1818" height="35.4545" filterUnits="userSpaceOnUse" color-interpolation-filters="sRGB">
<feFlood flood-opacity="0" result="BackgroundImageFix"/>
<feColorMatrix in="SourceAlpha" type="matrix" values="0 0 0 0 0 0 0 0 0 0 0 0 0 0 0 0 0 0 127 0" result="hardAlpha"/>
<feOffset dy="4.72727"/>
<feGaussianBlur stdDeviation="2.36364"/>
<feComposite in2="hardAlpha" operator="out"/>
<feColorMatrix type="matrix" values="0 0 0 0 0 0 0 0 0 0 0 0 0 0 0 0 0 0 0.25 0"/>
<feBlend mode="normal" in2="BackgroundImageFix" result="effect1_dropShadow_343_1559"/>
<feBlend mode="normal" in="SourceGraphic" in2="effect1_dropShadow_343_1559" result="shape"/>
</filter>
<linearGradient id="paint0_linear_343_1559" x1="196.5" y1="0" x2="196.5" y2="852" gradientUnits="userSpaceOnUse">
<stop stop-color="white" stop-opacity="0.3"/>
<stop offset="1" stop-color="#8FBEFF" stop-opacity="0.36"/>
</linearGradient>
<clipPath id="clip0_343_1559">
<rect width="393" height="852" fill="white"/>
</clipPath>
</defs>
</svg>
